<svg width="1200" height="528" viewBox="0 0 300 132" preserveAspectRatio="xMidYMid meet" xmlns="http://www.w3.org/2000/svg"><rect width="300" height="132" fill="#08090a"/><path d="M 92.8 85.4 L 79.8 93.6 L 72.3 100.5 L 59.9 102.6 L 48.0 102.5 L 32.6 103.0 L 18.0 96.8 L 14.5 85.4 L 16.2 73.4 L 37.6 71.8 L 44.9 59.1 L 60.6 66.1 L 77.2 66.1 L 89.7 74.0 L 87.5 85.4 Z" fill="#d6b46e" fill-opacity=".17" stroke="#d6b46e" stroke-width="1.1" opacity=".85"/><path d="M 192.3 76.0 L 185.0 87.6 L 172.6 96.0 L 156.1 98.2 L 136.3 111.1 L 114.0 104.5 L 110.1 88.2 L 113.6 76.0 L 115.6 65.6 L 117.5 50.4 L 138.4 47.0 L 156.3 53.4 L 176.3 52.9 L 193.3 61.8 L 191.2 76.0 Z" fill="#d6b46e" fill-opacity=".17" stroke="#d6b46e" stroke-width="1.1" opacity=".85"/><path d="M 312.7 79.0 L 293.2 89.9 L 283.5 99.5 L 270.5 112.8 L 246.9 113.4 L 227.9 104.6 L 226.7 89.2 L 217.1 79.0 L 223.9 67.9 L 229.1 54.5 L 246.1 42.4 L 268.2 51.8 L 292.5 51.1 L 297.7 66.6 L 312.9 79.0 Z" fill="#d6b46e" fill-opacity=".17" stroke="#d6b46e" stroke-width="1.1" opacity=".85"/><circle cx="209.4" cy="126.9" r="0.70" fill="#ece8dd" opacity="0.10"/><circle cx="239.2" cy="3.8" r="1.10" fill="#ece8dd" opacity="0.09"/><circle cx="61.6" cy="102.8" r="1.04" fill="#ece8dd" opacity="0.16"/><circle cx="30.7" cy="68.2" r="0.69" fill="#ece8dd" opacity="0.09"/><circle cx="163.7" cy="97.9" r="0.71" fill="#ece8dd" opacity="0.17"/><circle cx="254.4" cy="81.7" r="0.32" fill="#ece8dd" opacity="0.10"/><circle cx="170.2" cy="129.7" r="1.14" fill="#ece8dd" opacity="0.16"/><circle cx="266.2" cy="109.6" r="1.03" fill="#ece8dd" opacity="0.06"/><circle cx="117.3" cy="67.9" r="0.98" fill="#ece8dd" opacity="0.18"/><circle cx="151.0" cy="9.2" r="0.66" fill="#ece8dd" opacity="0.05"/><circle cx="34.1" cy="52.4" r="0.74" fill="#ece8dd" opacity="0.10"/><circle cx="43.1" cy="32.9" r="0.61" fill="#ece8dd" opacity="0.07"/><circle cx="23.3" cy="28.3" r="1.18" fill="#ece8dd" opacity="0.09"/><circle cx="216.3" cy="21.9" r="0.84" fill="#ece8dd" opacity="0.14"/><circle cx="210.1" cy="114.4" r="0.91" fill="#ece8dd" opacity="0.10"/><circle cx="142.1" cy="91.5" r="0.41" fill="#ece8dd" opacity="0.07"/><circle cx="259.6" cy="88.8" r="1.14" fill="#ece8dd" opacity="0.07"/><circle cx="116.8" cy="38.6" r="0.73" fill="#ece8dd" opacity="0.16"/><circle cx="264.0" cy="103.8" r="0.66" fill="#ece8dd" opacity="0.15"/><circle cx="57.6" cy="110.5" r="0.79" fill="#ece8dd" opacity="0.09"/><circle cx="297.2" cy="122.2" r="0.82" fill="#ece8dd" opacity="0.13"/><circle cx="267.0" cy="98.3" r="0.52" fill="#ece8dd" opacity="0.15"/><circle cx="139.2" cy="54.7" r="0.54" fill="#ece8dd" opacity="0.14"/><circle cx="266.3" cy="56.2" r="0.65" fill="#ece8dd" opacity="0.07"/><circle cx="69.0" cy="70.4" r="0.47" fill="#ece8dd" opacity="0.18"/><circle cx="198.0" cy="5.5" r="0.76" fill="#ece8dd" opacity="0.17"/><circle cx="25.6" cy="24.8" r="0.91" fill="#ece8dd" opacity="0.08"/><circle cx="296.1" cy="76.6" r="1.08" fill="#ece8dd" opacity="0.13"/><circle cx="138.9" cy="117.1" r="0.61" fill="#ece8dd" opacity="0.07"/><circle cx="226.3" cy="31.4" r="0.63" fill="#ece8dd" opacity="0.17"/><circle cx="228.2" cy="4.3" r="1.12" fill="#ece8dd" opacity="0.19"/><circle cx="94.4" cy="15.4" r="0.92" fill="#ece8dd" opacity="0.11"/><circle cx="70.2" cy="69.1" r="0.32" fill="#ece8dd" opacity="0.17"/><circle cx="122.9" cy="31.2" r="0.67" fill="#ece8dd" opacity="0.07"/><circle cx="135.7" cy="89.0" r="0.44" fill="#ece8dd" opacity="0.08"/><circle cx="197.5" cy="112.9" r="0.44" fill="#ece8dd" opacity="0.09"/><circle cx="94.4" cy="57.9" r="0.88" fill="#ece8dd" opacity="0.19"/><circle cx="181.4" cy="13.6" r="1.08" fill="#ece8dd" opacity="0.06"/><circle cx="189.5" cy="126.1" r="0.85" fill="#ece8dd" opacity="0.09"/><circle cx="98.8" cy="123.1" r="0.43" fill="#ece8dd" opacity="0.12"/></svg>