<svg width="1200" height="528" viewBox="0 0 300 132" preserveAspectRatio="xMidYMid meet" xmlns="http://www.w3.org/2000/svg"><rect width="300" height="132" fill="#08090a"/><rect y="105.6" width="300" height="26.4" fill="#82b698" opacity=".1"/><path d="M0 105.6 H 300" stroke="#82b698" stroke-width=".8" opacity=".45"/><path d="M268.3 47.9 l -3 16.5" stroke="#82b698" stroke-width=".8" opacity="0.59"/><path d="M81.2 22.9 l -3 13.4" stroke="#82b698" stroke-width=".8" opacity="0.25"/><path d="M127.2 61.8 l -3 9.9" stroke="#82b698" stroke-width=".8" opacity="0.30"/><path d="M26.7 2.1 l -3 9.8" stroke="#82b698" stroke-width=".8" opacity="0.36"/><path d="M84.3 29.0 l -3 16.3" stroke="#82b698" stroke-width=".8" opacity="0.27"/><path d="M163.1 83.5 l -3 15.1" stroke="#82b698" stroke-width=".8" opacity="0.48"/><path d="M297.3 0.9 l -3 11.1" stroke="#82b698" stroke-width=".8" opacity="0.22"/><path d="M108.4 25.5 l -3 16.9" stroke="#82b698" stroke-width=".8" opacity="0.21"/><path d="M157.0 1.2 l -3 17.3" stroke="#82b698" stroke-width=".8" opacity="0.32"/><path d="M44.1 102.4 l -3 12.3" stroke="#82b698" stroke-width=".8" opacity="0.15"/><path d="M146.3 85.5 l -3 20.3" stroke="#82b698" stroke-width=".8" opacity="0.37"/><path d="M146.2 84.8 l -3 14.8" stroke="#82b698" stroke-width=".8" opacity="0.23"/><path d="M193.6 90.2 l -3 15.4" stroke="#82b698" stroke-width=".8" opacity="0.30"/><path d="M109.9 22.1 l -3 13.9" stroke="#82b698" stroke-width=".8" opacity="0.18"/><path d="M219.1 22.8 l -3 22.2" stroke="#82b698" stroke-width=".8" opacity="0.37"/><path d="M268.6 81.2 l -3 22.3" stroke="#82b698" stroke-width=".8" opacity="0.22"/><path d="M175.1 35.4 l -3 21.3" stroke="#82b698" stroke-width=".8" opacity="0.33"/><path d="M105.5 74.2 l -3 14.5" stroke="#82b698" stroke-width=".8" opacity="0.24"/><path d="M180.6 88.0 l -3 22.7" stroke="#82b698" stroke-width=".8" opacity="0.57"/><path d="M160.5 49.9 l -3 13.0" stroke="#82b698" stroke-width=".8" opacity="0.49"/><path d="M149.1 41.7 l -3 12.4" stroke="#82b698" stroke-width=".8" opacity="0.45"/><path d="M129.0 46.3 l -3 21.8" stroke="#82b698" stroke-width=".8" opacity="0.39"/><path d="M110.1 74.3 l -3 15.3" stroke="#82b698" stroke-width=".8" opacity="0.42"/><path d="M56.5 60.9 l -3 16.9" stroke="#82b698" stroke-width=".8" opacity="0.24"/><path d="M24.6 47.0 l -3 20.5" stroke="#82b698" stroke-width=".8" opacity="0.41"/><path d="M125.1 28.1 l -3 23.8" stroke="#82b698" stroke-width=".8" opacity="0.43"/><path d="M294.2 39.1 l -3 9.0" stroke="#82b698" stroke-width=".8" opacity="0.17"/><path d="M235.0 14.2 l -3 12.9" stroke="#82b698" stroke-width=".8" opacity="0.57"/><path d="M264.6 45.0 l -3 23.5" stroke="#82b698" stroke-width=".8" opacity="0.42"/><path d="M279.1 101.4 l -3 16.1" stroke="#82b698" stroke-width=".8" opacity="0.57"/><path d="M121.2 99.4 l -3 10.1" stroke="#82b698" stroke-width=".8" opacity="0.59"/><path d="M211.7 69.0 l -3 16.1" stroke="#82b698" stroke-width=".8" opacity="0.22"/><path d="M180.8 92.7 l -3 17.7" stroke="#82b698" stroke-width=".8" opacity="0.43"/><path d="M210.7 29.5 l -3 13.6" stroke="#82b698" stroke-width=".8" opacity="0.36"/><path d="M274.6 15.8 l -3 19.2" stroke="#82b698" stroke-width=".8" opacity="0.54"/><path d="M33.6 16.8 l -3 14.8" stroke="#82b698" stroke-width=".8" opacity="0.30"/><path d="M127.0 104.9 l -3 15.1" stroke="#82b698" stroke-width=".8" opacity="0.44"/><path d="M267.4 2.9 l -3 18.3" stroke="#82b698" stroke-width=".8" opacity="0.31"/><path d="M126.7 43.9 l -3 14.1" stroke="#82b698" stroke-width=".8" opacity="0.44"/><path d="M72.4 26.8 l -3 12.5" stroke="#82b698" stroke-width=".8" opacity="0.52"/><path d="M92.6 72.6 l -3 10.8" stroke="#82b698" stroke-width=".8" opacity="0.28"/><path d="M118.8 13.0 l -3 16.1" stroke="#82b698" stroke-width=".8" opacity="0.31"/><path d="M232.6 96.5 l -3 21.1" stroke="#82b698" stroke-width=".8" opacity="0.17"/><path d="M218.5 19.4 l -3 10.6" stroke="#82b698" stroke-width=".8" opacity="0.34"/><path d="M96.9 69.4 l -3 9.5" stroke="#82b698" stroke-width=".8" opacity="0.33"/><path d="M49.7 69.1 l -3 19.3" stroke="#82b698" stroke-width=".8" opacity="0.32"/><path d="M24.1 66.4 l -3 23.1" stroke="#82b698" stroke-width=".8" opacity="0.32"/><path d="M274.9 94.7 l -3 20.0" stroke="#82b698" stroke-width=".8" opacity="0.57"/><path d="M282.2 46.7 l -3 23.5" stroke="#82b698" stroke-width=".8" opacity="0.40"/><path d="M154.3 100.0 l -3 18.4" stroke="#82b698" stroke-width=".8" opacity="0.25"/><path d="M2.7 44.8 l -3 15.8" stroke="#82b698" stroke-width=".8" opacity="0.55"/><path d="M50.6 11.6 l -3 14.0" stroke="#82b698" stroke-width=".8" opacity="0.44"/><path d="M108.3 52.0 l -3 9.3" stroke="#82b698" stroke-width=".8" opacity="0.45"/><path d="M129.8 65.7 l -3 9.4" stroke="#82b698" stroke-width=".8" opacity="0.57"/><path d="M34.5 10.4 l -3 20.8" stroke="#82b698" stroke-width=".8" opacity="0.38"/><path d="M54.4 38.9 l -3 14.8" stroke="#82b698" stroke-width=".8" opacity="0.16"/><path d="M245.4 23.9 l -3 15.1" stroke="#82b698" stroke-width=".8" opacity="0.38"/><path d="M270.4 70.2 l -3 21.3" stroke="#82b698" stroke-width=".8" opacity="0.36"/><path d="M42.7 48.1 l -3 22.3" stroke="#82b698" stroke-width=".8" opacity="0.28"/><path d="M88.9 11.4 l -3 15.8" stroke="#82b698" stroke-width=".8" opacity="0.26"/><path d="M268.6 9.8 l -3 12.8" stroke="#82b698" stroke-width=".8" opacity="0.30"/><path d="M60.5 50.6 l -3 22.9" stroke="#82b698" stroke-width=".8" opacity="0.28"/><path d="M102.4 37.9 l -3 9.2" stroke="#82b698" stroke-width=".8" opacity="0.18"/><path d="M244.1 75.9 l -3 9.4" stroke="#82b698" stroke-width=".8" opacity="0.43"/><path d="M251.2 67.4 l -3 15.3" stroke="#82b698" stroke-width=".8" opacity="0.32"/><path d="M69.0 101.0 l -3 10.3" stroke="#82b698" stroke-width=".8" opacity="0.53"/><path d="M233.8 84.4 l -3 17.6" stroke="#82b698" stroke-width=".8" opacity="0.54"/><path d="M91.1 64.3 l -3 13.3" stroke="#82b698" stroke-width=".8" opacity="0.33"/><path d="M258.6 59.7 l -3 13.7" stroke="#82b698" stroke-width=".8" opacity="0.36"/><path d="M242.7 56.7 l -3 18.8" stroke="#82b698" stroke-width=".8" opacity="0.24"/><ellipse cx="195.9" cy="128.1" rx="13.4" ry="1.8" fill="none" stroke="#82b698" stroke-width=".7" opacity=".5"/><ellipse cx="205.1" cy="127.4" rx="7.4" ry="1.8" fill="none" stroke="#82b698" stroke-width=".7" opacity=".5"/><ellipse cx="287.6" cy="110.2" rx="9.3" ry="1.8" fill="none" stroke="#82b698" stroke-width=".7" opacity=".5"/><ellipse cx="238.6" cy="122.7" rx="9.8" ry="1.8" fill="none" stroke="#82b698" stroke-width=".7" opacity=".5"/><ellipse cx="0.2" cy="114.1" rx="8.7" ry="1.8" fill="none" stroke="#82b698" stroke-width=".7" opacity=".5"/><ellipse cx="158.7" cy="120.9" rx="7.4" ry="1.8" fill="none" stroke="#82b698" stroke-width=".7" opacity=".5"/><ellipse cx="58.6" cy="125.6" rx="11.4" ry="1.8" fill="none" stroke="#82b698" stroke-width=".7" opacity=".5"/><ellipse cx="94.3" cy="110.8" rx="6.6" ry="1.8" fill="none" stroke="#82b698" stroke-width=".7" opacity=".5"/><ellipse cx="232.7" cy="119.5" rx="9.4" ry="1.8" fill="none" stroke="#82b698" stroke-width=".7" opacity=".5"/><circle cx="69.3" cy="103.6" r="3.7" fill="none" stroke="#82b698" stroke-width=".6" opacity=".4"/><circle cx="262.1" cy="103.6" r="3.6" fill="none" stroke="#82b698" stroke-width=".6" opacity=".4"/><circle cx="223.9" cy="103.6" r="2.1" fill="none" stroke="#82b698" stroke-width=".6" opacity=".4"/><circle cx="137.8" cy="103.6" r="2.3" fill="none" stroke="#82b698" stroke-width=".6" opacity=".4"/><circle cx="198.7" cy="103.6" r="5.7" fill="none" stroke="#82b698" stroke-width=".6" opacity=".4"/><circle cx="176.7" cy="103.6" r="5.8" fill="none" stroke="#82b698" stroke-width=".6" opacity=".4"/></svg>