<svg width="1200" height="528" viewBox="0 0 300 132" preserveAspectRatio="xMidYMid meet" xmlns="http://www.w3.org/2000/svg"><rect width="300" height="132" fill="#08090a"/><circle cx="61.5" cy="61.3" r="1.14" fill="#ece8dd" opacity="0.12"/><circle cx="298.1" cy="50.9" r="0.65" fill="#ece8dd" opacity="0.20"/><circle cx="92.7" cy="111.8" r="0.27" fill="#ece8dd" opacity="0.23"/><circle cx="68.8" cy="15.1" r="0.42" fill="#ece8dd" opacity="0.11"/><circle cx="80.6" cy="41.1" r="0.40" fill="#ece8dd" opacity="0.19"/><circle cx="66.0" cy="115.2" r="1.11" fill="#ece8dd" opacity="0.28"/><circle cx="145.2" cy="99.8" r="0.81" fill="#ece8dd" opacity="0.40"/><circle cx="285.9" cy="56.8" r="0.54" fill="#ece8dd" opacity="0.43"/><circle cx="236.0" cy="119.4" r="0.41" fill="#ece8dd" opacity="0.15"/><circle cx="195.0" cy="40.6" r="1.14" fill="#ece8dd" opacity="0.19"/><circle cx="74.1" cy="105.1" r="0.75" fill="#ece8dd" opacity="0.23"/><circle cx="68.2" cy="104.6" r="1.10" fill="#ece8dd" opacity="0.55"/><circle cx="237.4" cy="109.8" r="0.27" fill="#ece8dd" opacity="0.58"/><circle cx="172.2" cy="68.8" r="0.31" fill="#ece8dd" opacity="0.40"/><circle cx="190.7" cy="51.2" r="0.57" fill="#ece8dd" opacity="0.41"/><circle cx="191.4" cy="82.1" r="1.12" fill="#ece8dd" opacity="0.56"/><circle cx="158.8" cy="130.4" r="0.37" fill="#ece8dd" opacity="0.41"/><circle cx="98.0" cy="55.0" r="0.36" fill="#ece8dd" opacity="0.37"/><circle cx="243.2" cy="5.2" r="0.47" fill="#ece8dd" opacity="0.48"/><circle cx="66.3" cy="91.3" r="0.63" fill="#ece8dd" opacity="0.33"/><circle cx="83.0" cy="17.8" r="0.96" fill="#ece8dd" opacity="0.44"/><circle cx="29.7" cy="69.7" r="1.02" fill="#ece8dd" opacity="0.17"/><circle cx="259.6" cy="120.0" r="0.54" fill="#ece8dd" opacity="0.36"/><circle cx="82.5" cy="91.3" r="0.90" fill="#ece8dd" opacity="0.57"/><circle cx="44.8" cy="61.5" r="0.53" fill="#ece8dd" opacity="0.33"/><circle cx="225.1" cy="77.8" r="1.13" fill="#ece8dd" opacity="0.39"/><circle cx="192.6" cy="48.1" r="1.14" fill="#ece8dd" opacity="0.36"/><circle cx="52.4" cy="104.0" r="1.14" fill="#ece8dd" opacity="0.34"/><circle cx="275.3" cy="22.0" r="0.67" fill="#ece8dd" opacity="0.18"/><circle cx="186.7" cy="12.1" r="0.78" fill="#ece8dd" opacity="0.29"/><circle cx="162.5" cy="72.6" r="0.43" fill="#ece8dd" opacity="0.24"/><circle cx="54.3" cy="24.7" r="0.59" fill="#ece8dd" opacity="0.56"/><circle cx="244.9" cy="129.3" r="0.91" fill="#ece8dd" opacity="0.56"/><circle cx="105.1" cy="111.7" r="0.66" fill="#ece8dd" opacity="0.25"/><circle cx="101.1" cy="124.9" r="0.96" fill="#ece8dd" opacity="0.24"/><circle cx="76.9" cy="92.0" r="0.57" fill="#ece8dd" opacity="0.60"/><circle cx="108.0" cy="101.0" r="0.82" fill="#ece8dd" opacity="0.48"/><circle cx="202.7" cy="72.6" r="0.57" fill="#ece8dd" opacity="0.35"/><circle cx="295.9" cy="123.3" r="0.95" fill="#ece8dd" opacity="0.58"/><circle cx="262.4" cy="38.7" r="0.30" fill="#ece8dd" opacity="0.23"/><circle cx="46.0" cy="8.2" r="0.27" fill="#ece8dd" opacity="0.51"/><circle cx="77.7" cy="45.6" r="0.55" fill="#ece8dd" opacity="0.36"/><circle cx="133.1" cy="46.7" r="0.89" fill="#ece8dd" opacity="0.52"/><circle cx="250.9" cy="89.3" r="0.74" fill="#ece8dd" opacity="0.25"/><circle cx="211.1" cy="86.7" r="0.63" fill="#ece8dd" opacity="0.25"/><circle cx="147.7" cy="50.7" r="0.32" fill="#ece8dd" opacity="0.31"/><circle cx="142.2" cy="9.7" r="1.07" fill="#ece8dd" opacity="0.39"/><circle cx="23.5" cy="110.7" r="0.42" fill="#ece8dd" opacity="0.43"/><circle cx="70.6" cy="18.0" r="0.56" fill="#ece8dd" opacity="0.38"/><circle cx="93.5" cy="51.2" r="0.42" fill="#ece8dd" opacity="0.50"/><circle cx="139.1" cy="71.9" r="1.04" fill="#ece8dd" opacity="0.11"/><circle cx="146.6" cy="82.3" r="1.07" fill="#ece8dd" opacity="0.59"/><circle cx="150.2" cy="60.8" r="0.76" fill="#ece8dd" opacity="0.18"/><circle cx="2.9" cy="28.1" r="0.71" fill="#ece8dd" opacity="0.53"/><circle cx="70.1" cy="49.0" r="0.73" fill="#ece8dd" opacity="0.21"/><circle cx="215.3" cy="38.4" r="0.75" fill="#ece8dd" opacity="0.12"/><circle cx="177.6" cy="68.1" r="0.68" fill="#ece8dd" opacity="0.59"/><circle cx="14.3" cy="54.5" r="0.65" fill="#ece8dd" opacity="0.33"/><circle cx="255.6" cy="114.5" r="0.73" fill="#ece8dd" opacity="0.39"/><circle cx="297.1" cy="10.1" r="0.38" fill="#ece8dd" opacity="0.52"/><circle cx="226.9" cy="90.4" r="0.59" fill="#ece8dd" opacity="0.21"/><circle cx="260.4" cy="105.4" r="0.47" fill="#ece8dd" opacity="0.22"/><circle cx="133.8" cy="82.2" r="0.83" fill="#ece8dd" opacity="0.56"/><circle cx="276.2" cy="100.0" r="0.47" fill="#ece8dd" opacity="0.41"/><circle cx="61.5" cy="53.4" r="0.94" fill="#ece8dd" opacity="0.34"/><circle cx="212.4" cy="0.3" r="0.55" fill="#ece8dd" opacity="0.40"/><circle cx="4.8" cy="8.2" r="1.13" fill="#ece8dd" opacity="0.31"/><circle cx="96.5" cy="28.2" r="0.48" fill="#ece8dd" opacity="0.60"/><circle cx="278.8" cy="96.4" r="0.89" fill="#ece8dd" opacity="0.53"/><circle cx="123.2" cy="5.4" r="0.84" fill="#ece8dd" opacity="0.50"/><defs><radialGradient id="gp44183"><stop offset="0" stop-color="#fff" stop-opacity="1"/><stop offset=".22" stop-color="#d6b46e" stop-opacity=".9"/><stop offset="1" stop-color="#d6b46e" stop-opacity="0"/></radialGradient></defs><circle cx="150" cy="66" r="54" fill="url(#gp44183)"/><path d="M84 66 H 216 M 150 27 V 105" stroke="#fff" stroke-width=".9" opacity=".55"/><circle cx="150.0" cy="66.0" r="5.10" fill="#fff" opacity="1.00"/></svg>