<svg width="1200" height="528" viewBox="0 0 300 132" preserveAspectRatio="xMidYMid meet" xmlns="http://www.w3.org/2000/svg"><rect width="300" height="132" fill="#08090a"/><circle cx="160.2" cy="106.8" r="1.13" fill="#d6b46e" opacity="0.79"/><circle cx="206.4" cy="65.9" r="0.96" fill="#d6b46e" opacity="0.16"/><circle cx="103.4" cy="72.6" r="0.98" fill="#d6b46e" opacity="0.39"/><circle cx="194.0" cy="77.9" r="0.45" fill="#d6b46e" opacity="0.70"/><circle cx="200.3" cy="107.1" r="0.71" fill="#d6b46e" opacity="0.24"/><circle cx="211.0" cy="63.6" r="0.69" fill="#d6b46e" opacity="0.65"/><circle cx="1.7" cy="93.5" r="1.06" fill="#d6b46e" opacity="0.34"/><circle cx="124.1" cy="44.9" r="1.40" fill="#d6b46e" opacity="0.69"/><circle cx="174.0" cy="20.9" r="0.60" fill="#d6b46e" opacity="0.18"/><circle cx="225.6" cy="97.0" r="0.63" fill="#d6b46e" opacity="0.13"/><circle cx="92.3" cy="79.9" r="0.74" fill="#d6b46e" opacity="0.70"/><circle cx="148.9" cy="85.4" r="0.78" fill="#d6b46e" opacity="0.70"/><circle cx="28.3" cy="105.7" r="1.57" fill="#d6b46e" opacity="0.37"/><circle cx="277.1" cy="69.8" r="0.84" fill="#d6b46e" opacity="0.18"/><circle cx="130.8" cy="85.5" r="1.77" fill="#d6b46e" opacity="0.69"/><circle cx="246.5" cy="56.9" r="0.41" fill="#d6b46e" opacity="0.36"/><circle cx="101.0" cy="14.9" r="1.39" fill="#d6b46e" opacity="0.24"/><circle cx="243.3" cy="25.9" r="0.36" fill="#d6b46e" opacity="0.82"/><circle cx="160.4" cy="25.7" r="1.25" fill="#d6b46e" opacity="0.36"/><circle cx="293.4" cy="93.2" r="1.74" fill="#d6b46e" opacity="0.68"/><circle cx="13.9" cy="126.1" r="0.57" fill="#d6b46e" opacity="0.61"/><circle cx="247.5" cy="26.1" r="1.44" fill="#d6b46e" opacity="0.15"/><circle cx="5.3" cy="82.0" r="0.37" fill="#d6b46e" opacity="0.34"/><circle cx="158.2" cy="84.8" r="1.00" fill="#d6b46e" opacity="0.29"/><circle cx="267.1" cy="97.1" r="0.52" fill="#d6b46e" opacity="0.60"/><circle cx="152.2" cy="24.0" r="1.75" fill="#d6b46e" opacity="0.40"/><circle cx="264.6" cy="50.6" r="1.09" fill="#d6b46e" opacity="0.13"/><circle cx="95.3" cy="83.4" r="0.99" fill="#d6b46e" opacity="0.71"/><circle cx="232.4" cy="62.2" r="0.32" fill="#d6b46e" opacity="0.18"/><circle cx="252.1" cy="6.2" r="1.61" fill="#d6b46e" opacity="0.56"/><circle cx="6.1" cy="10.2" r="1.39" fill="#d6b46e" opacity="0.57"/><circle cx="238.6" cy="45.8" r="1.74" fill="#d6b46e" opacity="0.45"/><circle cx="46.9" cy="112.8" r="0.91" fill="#d6b46e" opacity="0.46"/><circle cx="168.8" cy="0.8" r="0.71" fill="#d6b46e" opacity="0.31"/><circle cx="160.0" cy="66.5" r="1.00" fill="#d6b46e" opacity="0.75"/><circle cx="95.4" cy="106.4" r="1.75" fill="#d6b46e" opacity="0.28"/><circle cx="107.2" cy="40.9" r="0.32" fill="#d6b46e" opacity="0.69"/><circle cx="143.9" cy="85.6" r="0.81" fill="#d6b46e" opacity="0.42"/><circle cx="12.7" cy="96.5" r="1.08" fill="#d6b46e" opacity="0.48"/><circle cx="140.3" cy="57.2" r="0.72" fill="#d6b46e" opacity="0.18"/><circle cx="263.0" cy="8.3" r="0.91" fill="#d6b46e" opacity="0.68"/><circle cx="233.0" cy="132.0" r="0.97" fill="#d6b46e" opacity="0.32"/><circle cx="0.4" cy="20.5" r="0.95" fill="#d6b46e" opacity="0.72"/><circle cx="108.3" cy="16.5" r="0.77" fill="#d6b46e" opacity="0.37"/><circle cx="210.6" cy="26.0" r="1.55" fill="#d6b46e" opacity="0.53"/><circle cx="99.4" cy="77.8" r="1.78" fill="#d6b46e" opacity="0.61"/><circle cx="3.1" cy="74.4" r="0.82" fill="#d6b46e" opacity="0.47"/><circle cx="289.4" cy="40.5" r="1.62" fill="#d6b46e" opacity="0.34"/><circle cx="186.8" cy="95.1" r="0.34" fill="#d6b46e" opacity="0.30"/><circle cx="8.0" cy="67.1" r="0.55" fill="#d6b46e" opacity="0.65"/><circle cx="38.0" cy="26.3" r="1.53" fill="#d6b46e" opacity="0.62"/><circle cx="121.8" cy="0.1" r="0.37" fill="#d6b46e" opacity="0.65"/><circle cx="162.9" cy="82.6" r="0.37" fill="#d6b46e" opacity="0.44"/><circle cx="18.7" cy="62.6" r="1.57" fill="#d6b46e" opacity="0.35"/><circle cx="53.6" cy="108.3" r="1.21" fill="#d6b46e" opacity="0.18"/><circle cx="85.7" cy="117.0" r="1.67" fill="#d6b46e" opacity="0.49"/><circle cx="238.0" cy="125.8" r="0.40" fill="#d6b46e" opacity="0.74"/><circle cx="80.5" cy="118.0" r="0.79" fill="#d6b46e" opacity="0.58"/><circle cx="23.3" cy="101.0" r="1.05" fill="#d6b46e" opacity="0.20"/><circle cx="297.2" cy="47.7" r="0.94" fill="#d6b46e" opacity="0.21"/><circle cx="133.1" cy="112.7" r="0.59" fill="#d6b46e" opacity="0.75"/><circle cx="125.1" cy="121.8" r="0.55" fill="#d6b46e" opacity="0.72"/><circle cx="39.0" cy="1.8" r="0.50" fill="#d6b46e" opacity="0.59"/><circle cx="2.0" cy="80.2" r="0.63" fill="#d6b46e" opacity="0.28"/><circle cx="184.7" cy="85.9" r="0.74" fill="#d6b46e" opacity="0.18"/><circle cx="160.7" cy="70.3" r="0.31" fill="#d6b46e" opacity="0.52"/><circle cx="105.2" cy="32.9" r="1.48" fill="#d6b46e" opacity="0.58"/><circle cx="69.3" cy="85.9" r="0.90" fill="#d6b46e" opacity="0.32"/><circle cx="238.6" cy="119.3" r="1.47" fill="#d6b46e" opacity="0.67"/><circle cx="65.6" cy="75.1" r="0.86" fill="#d6b46e" opacity="0.43"/><circle cx="232.5" cy="121.6" r="0.63" fill="#d6b46e" opacity="0.47"/><circle cx="85.0" cy="55.8" r="0.85" fill="#d6b46e" opacity="0.16"/><circle cx="43.6" cy="62.1" r="0.95" fill="#d6b46e" opacity="0.59"/><circle cx="282.1" cy="107.9" r="1.05" fill="#d6b46e" opacity="0.65"/><circle cx="231.4" cy="40.9" r="0.99" fill="#d6b46e" opacity="0.67"/><circle cx="246.2" cy="109.2" r="1.23" fill="#d6b46e" opacity="0.25"/><circle cx="245.3" cy="74.8" r="0.66" fill="#d6b46e" opacity="0.36"/><circle cx="110.4" cy="8.3" r="0.48" fill="#d6b46e" opacity="0.76"/><circle cx="105.9" cy="77.3" r="1.23" fill="#d6b46e" opacity="0.64"/><circle cx="254.4" cy="105.4" r="1.20" fill="#d6b46e" opacity="0.67"/><circle cx="79.7" cy="110.0" r="0.54" fill="#d6b46e" opacity="0.70"/><circle cx="201.8" cy="20.6" r="0.76" fill="#d6b46e" opacity="0.17"/><circle cx="147.6" cy="115.3" r="1.40" fill="#d6b46e" opacity="0.73"/><circle cx="9.6" cy="48.3" r="0.98" fill="#d6b46e" opacity="0.79"/><circle cx="167.2" cy="52.3" r="1.77" fill="#d6b46e" opacity="0.27"/><circle cx="253.2" cy="9.5" r="0.69" fill="#d6b46e" opacity="0.61"/><circle cx="129.1" cy="41.6" r="1.10" fill="#d6b46e" opacity="0.43"/><circle cx="3.7" cy="94.6" r="1.62" fill="#d6b46e" opacity="0.38"/><circle cx="206.3" cy="122.5" r="0.45" fill="#d6b46e" opacity="0.22"/><circle cx="0.2" cy="128.6" r="0.49" fill="#d6b46e" opacity="0.17"/><circle cx="298.1" cy="17.4" r="0.74" fill="#d6b46e" opacity="0.22"/><circle cx="214.6" cy="33.9" r="1.73" fill="#d6b46e" opacity="0.70"/><circle cx="267.2" cy="94.0" r="0.83" fill="#d6b46e" opacity="0.42"/><circle cx="211.3" cy="36.6" r="1.54" fill="#d6b46e" opacity="0.75"/><circle cx="270.8" cy="90.5" r="1.22" fill="#d6b46e" opacity="0.50"/><circle cx="199.7" cy="89.2" r="1.63" fill="#d6b46e" opacity="0.71"/><circle cx="285.5" cy="93.3" r="1.54" fill="#d6b46e" opacity="0.53"/><circle cx="81.2" cy="93.7" r="1.59" fill="#d6b46e" opacity="0.75"/><circle cx="25.8" cy="71.6" r="0.70" fill="#d6b46e" opacity="0.63"/><circle cx="89.7" cy="0.9" r="1.63" fill="#d6b46e" opacity="0.25"/><circle cx="156.3" cy="79.5" r="1.29" fill="#d6b46e" opacity="0.40"/><circle cx="25.2" cy="49.7" r="0.44" fill="#d6b46e" opacity="0.31"/><circle cx="297.9" cy="70.7" r="1.75" fill="#d6b46e" opacity="0.72"/><circle cx="82.5" cy="91.1" r="1.75" fill="#d6b46e" opacity="0.42"/><circle cx="127.6" cy="117.3" r="1.62" fill="#d6b46e" opacity="0.48"/><circle cx="272.2" cy="108.1" r="1.21" fill="#d6b46e" opacity="0.37"/><circle cx="271.8" cy="109.2" r="0.65" fill="#d6b46e" opacity="0.59"/><circle cx="236.7" cy="84.0" r="1.39" fill="#d6b46e" opacity="0.50"/><circle cx="294.1" cy="121.0" r="0.56" fill="#d6b46e" opacity="0.78"/><circle cx="59.0" cy="10.9" r="1.05" fill="#d6b46e" opacity="0.23"/><circle cx="75.9" cy="128.2" r="0.53" fill="#d6b46e" opacity="0.21"/><circle cx="265.8" cy="38.1" r="0.60" fill="#d6b46e" opacity="0.44"/><circle cx="91.3" cy="126.6" r="1.41" fill="#d6b46e" opacity="0.61"/><circle cx="123.9" cy="102.0" r="1.32" fill="#d6b46e" opacity="0.75"/><circle cx="275.8" cy="128.7" r="0.65" fill="#d6b46e" opacity="0.74"/><circle cx="231.2" cy="90.3" r="1.26" fill="#d6b46e" opacity="0.54"/><circle cx="188.6" cy="36.1" r="0.43" fill="#d6b46e" opacity="0.31"/><circle cx="100.3" cy="16.3" r="1.37" fill="#d6b46e" opacity="0.53"/><circle cx="168.5" cy="48.0" r="0.58" fill="#d6b46e" opacity="0.78"/><circle cx="36.7" cy="68.2" r="0.84" fill="#d6b46e" opacity="0.43"/><circle cx="183.8" cy="22.1" r="1.57" fill="#d6b46e" opacity="0.31"/><circle cx="110.5" cy="7.4" r="1.19" fill="#d6b46e" opacity="0.54"/><circle cx="275.8" cy="31.7" r="1.43" fill="#d6b46e" opacity="0.23"/><circle cx="121.8" cy="26.6" r="1.06" fill="#d6b46e" opacity="0.22"/><circle cx="196.3" cy="7.4" r="1.18" fill="#d6b46e" opacity="0.79"/><circle cx="259.8" cy="32.2" r="1.20" fill="#d6b46e" opacity="0.27"/><circle cx="38.2" cy="46.2" r="1.09" fill="#d6b46e" opacity="0.70"/><circle cx="55.7" cy="123.4" r="1.68" fill="#d6b46e" opacity="0.82"/><circle cx="60.9" cy="69.8" r="1.20" fill="#d6b46e" opacity="0.67"/><circle cx="129.7" cy="22.8" r="0.39" fill="#d6b46e" opacity="0.25"/><circle cx="8.4" cy="18.7" r="1.42" fill="#d6b46e" opacity="0.27"/><circle cx="130.9" cy="100.0" r="1.65" fill="#d6b46e" opacity="0.20"/><circle cx="21.9" cy="54.3" r="1.46" fill="#d6b46e" opacity="0.81"/><circle cx="72.0" cy="27.0" r="0.62" fill="#d6b46e" opacity="0.35"/><circle cx="145.6" cy="109.9" r="0.46" fill="#d6b46e" opacity="0.22"/><circle cx="256.9" cy="81.7" r="0.39" fill="#d6b46e" opacity="0.74"/><circle cx="226.6" cy="109.1" r="0.81" fill="#d6b46e" opacity="0.22"/><circle cx="102.5" cy="84.4" r="1.79" fill="#d6b46e" opacity="0.15"/><circle cx="208.5" cy="61.5" r="1.20" fill="#d6b46e" opacity="0.54"/><circle cx="54.2" cy="57.6" r="0.46" fill="#d6b46e" opacity="0.55"/><circle cx="218.9" cy="33.7" r="1.39" fill="#d6b46e" opacity="0.63"/><circle cx="294.7" cy="102.9" r="1.56" fill="#d6b46e" opacity="0.74"/><circle cx="149.8" cy="129.2" r="0.73" fill="#d6b46e" opacity="0.26"/><circle cx="147.6" cy="21.3" r="1.30" fill="#d6b46e" opacity="0.14"/><circle cx="233.4" cy="79.9" r="0.84" fill="#d6b46e" opacity="0.60"/><circle cx="273.5" cy="130.6" r="1.08" fill="#d6b46e" opacity="0.23"/><circle cx="209.5" cy="34.6" r="0.54" fill="#d6b46e" opacity="0.70"/><circle cx="160.7" cy="110.6" r="0.45" fill="#d6b46e" opacity="0.73"/><circle cx="88.9" cy="35.3" r="1.01" fill="#d6b46e" opacity="0.79"/><circle cx="209.1" cy="100.4" r="1.71" fill="#d6b46e" opacity="0.43"/><circle cx="108.6" cy="29.5" r="1.65" fill="#d6b46e" opacity="0.24"/><circle cx="8.7" cy="88.4" r="0.78" fill="#d6b46e" opacity="0.45"/><circle cx="182.2" cy="23.7" r="1.68" fill="#d6b46e" opacity="0.19"/><circle cx="10.7" cy="102.0" r="1.74" fill="#d6b46e" opacity="0.25"/><circle cx="43.2" cy="112.0" r="1.41" fill="#d6b46e" opacity="0.30"/><circle cx="293.0" cy="10.2" r="1.16" fill="#d6b46e" opacity="0.30"/><circle cx="82.1" cy="117.7" r="1.78" fill="#d6b46e" opacity="0.69"/><circle cx="19.9" cy="126.1" r="0.59" fill="#d6b46e" opacity="0.28"/><circle cx="177.9" cy="35.0" r="0.64" fill="#d6b46e" opacity="0.19"/><circle cx="294.5" cy="101.2" r="0.76" fill="#d6b46e" opacity="0.40"/><circle cx="122.6" cy="82.7" r="0.63" fill="#d6b46e" opacity="0.48"/><circle cx="205.3" cy="73.0" r="1.56" fill="#d6b46e" opacity="0.40"/><circle cx="139.8" cy="106.4" r="0.43" fill="#d6b46e" opacity="0.22"/><circle cx="167.2" cy="103.7" r="1.68" fill="#d6b46e" opacity="0.32"/><circle cx="297.2" cy="45.0" r="0.61" fill="#d6b46e" opacity="0.72"/><circle cx="255.2" cy="24.4" r="1.02" fill="#d6b46e" opacity="0.18"/><circle cx="12.2" cy="9.1" r="1.79" fill="#d6b46e" opacity="0.78"/><circle cx="132.6" cy="78.1" r="1.24" fill="#d6b46e" opacity="0.22"/><circle cx="52.3" cy="104.3" r="0.93" fill="#d6b46e" opacity="0.39"/><circle cx="272.3" cy="120.1" r="1.64" fill="#d6b46e" opacity="0.65"/><circle cx="128.2" cy="129.7" r="0.91" fill="#d6b46e" opacity="0.57"/><circle cx="272.7" cy="14.5" r="0.65" fill="#d6b46e" opacity="0.53"/><circle cx="181.2" cy="78.0" r="0.31" fill="#d6b46e" opacity="0.12"/><circle cx="266.6" cy="38.0" r="1.61" fill="#d6b46e" opacity="0.50"/><circle cx="264.5" cy="114.3" r="0.88" fill="#d6b46e" opacity="0.51"/><circle cx="24.2" cy="105.4" r="1.75" fill="#d6b46e" opacity="0.25"/><circle cx="217.6" cy="37.0" r="1.24" fill="#d6b46e" opacity="0.55"/><circle cx="249.9" cy="58.2" r="0.37" fill="#d6b46e" opacity="0.68"/><circle cx="35.3" cy="65.0" r="0.86" fill="#d6b46e" opacity="0.66"/><circle cx="72.3" cy="93.9" r="0.75" fill="#d6b46e" opacity="0.81"/><circle cx="29.6" cy="50.6" r="0.65" fill="#d6b46e" opacity="0.54"/><circle cx="29.0" cy="15.6" r="1.30" fill="#d6b46e" opacity="0.62"/><circle cx="186.0" cy="20.1" r="0.37" fill="#d6b46e" opacity="0.59"/><circle cx="44.0" cy="73.6" r="1.40" fill="#d6b46e" opacity="0.21"/><circle cx="213.2" cy="62.3" r="1.67" fill="#d6b46e" opacity="0.44"/><circle cx="199.8" cy="99.8" r="0.96" fill="#d6b46e" opacity="0.65"/><circle cx="286.8" cy="94.3" r="0.44" fill="#d6b46e" opacity="0.47"/><circle cx="102.4" cy="101.4" r="1.24" fill="#d6b46e" opacity="0.39"/><circle cx="86.4" cy="30.1" r="1.31" fill="#d6b46e" opacity="0.35"/><circle cx="140.9" cy="71.8" r="0.82" fill="#d6b46e" opacity="0.39"/><circle cx="26.6" cy="91.0" r="0.39" fill="#d6b46e" opacity="0.76"/><circle cx="140.0" cy="73.2" r="0.33" fill="#d6b46e" opacity="0.63"/><circle cx="182.4" cy="66.8" r="0.73" fill="#d6b46e" opacity="0.53"/><circle cx="207.2" cy="63.8" r="0.93" fill="#d6b46e" opacity="0.45"/><circle cx="206.7" cy="38.5" r="0.50" fill="#d6b46e" opacity="0.55"/><circle cx="172.8" cy="128.6" r="0.93" fill="#d6b46e" opacity="0.73"/><circle cx="243.8" cy="52.4" r="0.40" fill="#d6b46e" opacity="0.35"/><circle cx="24.1" cy="59.6" r="1.20" fill="#d6b46e" opacity="0.81"/><circle cx="134.6" cy="66.6" r="1.76" fill="#d6b46e" opacity="0.69"/><circle cx="133.6" cy="130.8" r="1.25" fill="#d6b46e" opacity="0.73"/><circle cx="216.5" cy="38.1" r="1.38" fill="#d6b46e" opacity="0.16"/><circle cx="80.7" cy="34.9" r="1.08" fill="#d6b46e" opacity="0.43"/><circle cx="117.5" cy="18.0" r="1.08" fill="#d6b46e" opacity="0.71"/><circle cx="266.5" cy="71.1" r="1.17" fill="#d6b46e" opacity="0.59"/><circle cx="42.8" cy="122.7" r="0.48" fill="#d6b46e" opacity="0.19"/><circle cx="23.9" cy="97.7" r="0.79" fill="#d6b46e" opacity="0.51"/><circle cx="56.5" cy="117.6" r="1.49" fill="#d6b46e" opacity="0.64"/><circle cx="19.8" cy="77.0" r="0.43" fill="#d6b46e" opacity="0.55"/><circle cx="55.8" cy="64.9" r="0.51" fill="#d6b46e" opacity="0.32"/><circle cx="252.2" cy="100.1" r="1.03" fill="#d6b46e" opacity="0.67"/><circle cx="140.0" cy="55.9" r="1.38" fill="#d6b46e" opacity="0.67"/><circle cx="240.3" cy="24.5" r="1.38" fill="#d6b46e" opacity="0.20"/><circle cx="172.6" cy="83.4" r="1.01" fill="#d6b46e" opacity="0.47"/><circle cx="209.1" cy="43.1" r="1.23" fill="#d6b46e" opacity="0.70"/><circle cx="37.5" cy="53.8" r="1.74" fill="#d6b46e" opacity="0.15"/><circle cx="266.9" cy="74.5" r="1.18" fill="#d6b46e" opacity="0.20"/><circle cx="288.6" cy="73.0" r="0.93" fill="#d6b46e" opacity="0.22"/><circle cx="277.2" cy="84.4" r="0.71" fill="#d6b46e" opacity="0.32"/><circle cx="193.5" cy="78.6" r="1.31" fill="#d6b46e" opacity="0.78"/><circle cx="124.2" cy="20.6" r="0.52" fill="#d6b46e" opacity="0.62"/><circle cx="70.8" cy="9.5" r="1.40" fill="#d6b46e" opacity="0.70"/><circle cx="71.9" cy="18.9" r="1.47" fill="#d6b46e" opacity="0.22"/><circle cx="121.1" cy="116.1" r="0.87" fill="#d6b46e" opacity="0.73"/><circle cx="16.7" cy="90.0" r="0.36" fill="#d6b46e" opacity="0.60"/><circle cx="251.9" cy="89.2" r="0.90" fill="#d6b46e" opacity="0.70"/><circle cx="34.7" cy="78.8" r="0.35" fill="#d6b46e" opacity="0.37"/><circle cx="295.9" cy="47.2" r="1.42" fill="#d6b46e" opacity="0.60"/><circle cx="121.8" cy="27.2" r="1.62" fill="#d6b46e" opacity="0.19"/><circle cx="23.6" cy="77.6" r="0.99" fill="#d6b46e" opacity="0.64"/><circle cx="27.8" cy="18.0" r="0.77" fill="#d6b46e" opacity="0.44"/><circle cx="149.4" cy="52.2" r="0.91" fill="#d6b46e" opacity="0.34"/><circle cx="84.3" cy="26.4" r="0.41" fill="#d6b46e" opacity="0.68"/><circle cx="130.9" cy="109.5" r="1.57" fill="#d6b46e" opacity="0.80"/><circle cx="26.9" cy="44.2" r="0.47" fill="#d6b46e" opacity="0.15"/><circle cx="263.2" cy="90.4" r="1.47" fill="#d6b46e" opacity="0.33"/><circle cx="9.9" cy="80.0" r="1.25" fill="#d6b46e" opacity="0.15"/><circle cx="265.5" cy="37.1" r="0.54" fill="#d6b46e" opacity="0.34"/><circle cx="215.9" cy="35.5" r="1.68" fill="#d6b46e" opacity="0.41"/><circle cx="62.6" cy="41.1" r="1.59" fill="#d6b46e" opacity="0.37"/><circle cx="258.6" cy="118.6" r="1.80" fill="#d6b46e" opacity="0.14"/><circle cx="59.6" cy="98.7" r="1.05" fill="#d6b46e" opacity="0.51"/><circle cx="179.7" cy="76.0" r="0.41" fill="#d6b46e" opacity="0.15"/><circle cx="10.2" cy="107.4" r="0.39" fill="#d6b46e" opacity="0.78"/><circle cx="38.9" cy="19.1" r="1.55" fill="#d6b46e" opacity="0.45"/><circle cx="79.6" cy="2.4" r="0.74" fill="#d6b46e" opacity="0.81"/><circle cx="198.7" cy="68.7" r="1.08" fill="#d6b46e" opacity="0.31"/><circle cx="199.8" cy="32.8" r="1.79" fill="#d6b46e" opacity="0.71"/><circle cx="201.5" cy="9.4" r="1.57" fill="#d6b46e" opacity="0.21"/><circle cx="120.0" cy="122.8" r="0.39" fill="#d6b46e" opacity="0.82"/><circle cx="142.1" cy="7.3" r="1.32" fill="#d6b46e" opacity="0.61"/><circle cx="150.0" cy="32.9" r="0.79" fill="#d6b46e" opacity="0.59"/><circle cx="32.7" cy="16.4" r="1.20" fill="#d6b46e" opacity="0.42"/><circle cx="197.2" cy="57.1" r="0.71" fill="#d6b46e" opacity="0.55"/><circle cx="162.1" cy="116.8" r="0.63" fill="#d6b46e" opacity="0.77"/><circle cx="98.1" cy="12.4" r="1.10" fill="#d6b46e" opacity="0.48"/><circle cx="48.6" cy="70.0" r="0.81" fill="#d6b46e" opacity="0.80"/><circle cx="42.9" cy="85.0" r="0.54" fill="#d6b46e" opacity="0.17"/><circle cx="187.0" cy="69.4" r="1.64" fill="#d6b46e" opacity="0.81"/><circle cx="193.9" cy="100.5" r="1.45" fill="#d6b46e" opacity="0.43"/><circle cx="288.5" cy="47.9" r="1.45" fill="#d6b46e" opacity="0.21"/><circle cx="98.2" cy="121.7" r="1.02" fill="#d6b46e" opacity="0.40"/><circle cx="15.5" cy="49.1" r="0.81" fill="#d6b46e" opacity="0.79"/><circle cx="293.3" cy="132.0" r="1.26" fill="#d6b46e" opacity="0.15"/><circle cx="108.9" cy="79.4" r="1.66" fill="#d6b46e" opacity="0.53"/><circle cx="107.3" cy="121.5" r="0.89" fill="#d6b46e" opacity="0.79"/><circle cx="10.3" cy="99.7" r="1.63" fill="#d6b46e" opacity="0.48"/><circle cx="52.1" cy="50.8" r="0.36" fill="#d6b46e" opacity="0.17"/><circle cx="77.0" cy="25.8" r="1.59" fill="#d6b46e" opacity="0.75"/><circle cx="111.0" cy="86.1" r="0.64" fill="#d6b46e" opacity="0.81"/><circle cx="291.7" cy="1.0" r="0.89" fill="#d6b46e" opacity="0.48"/><circle cx="219.6" cy="50.7" r="1.71" fill="#d6b46e" opacity="0.78"/><circle cx="264.8" cy="16.7" r="1.32" fill="#d6b46e" opacity="0.20"/><circle cx="240.7" cy="73.3" r="0.77" fill="#d6b46e" opacity="0.28"/><circle cx="231.5" cy="69.4" r="0.34" fill="#d6b46e" opacity="0.50"/><circle cx="32.8" cy="55.5" r="0.65" fill="#d6b46e" opacity="0.33"/><circle cx="42.3" cy="62.1" r="0.48" fill="#d6b46e" opacity="0.29"/><circle cx="212.2" cy="72.8" r="1.49" fill="#d6b46e" opacity="0.39"/><circle cx="46.9" cy="109.8" r="0.46" fill="#d6b46e" opacity="0.43"/><circle cx="9.6" cy="122.9" r="1.07" fill="#d6b46e" opacity="0.56"/><circle cx="272.1" cy="61.1" r="1.04" fill="#d6b46e" opacity="0.73"/><circle cx="19.2" cy="14.7" r="0.93" fill="#d6b46e" opacity="0.70"/><circle cx="293.7" cy="84.1" r="1.63" fill="#d6b46e" opacity="0.79"/><circle cx="242.9" cy="57.4" r="1.66" fill="#d6b46e" opacity="0.65"/><circle cx="102.1" cy="73.3" r="1.01" fill="#d6b46e" opacity="0.64"/><circle cx="27.1" cy="41.7" r="0.90" fill="#d6b46e" opacity="0.12"/><circle cx="160.8" cy="119.2" r="0.90" fill="#d6b46e" opacity="0.27"/><circle cx="194.2" cy="77.9" r="1.62" fill="#d6b46e" opacity="0.42"/><circle cx="60.1" cy="63.8" r="1.64" fill="#d6b46e" opacity="0.32"/><circle cx="167.1" cy="121.2" r="0.55" fill="#d6b46e" opacity="0.20"/><circle cx="263.2" cy="119.4" r="0.67" fill="#d6b46e" opacity="0.34"/><circle cx="287.6" cy="34.4" r="0.39" fill="#d6b46e" opacity="0.77"/><circle cx="47.2" cy="43.4" r="1.15" fill="#d6b46e" opacity="0.25"/><circle cx="29.3" cy="53.7" r="0.65" fill="#d6b46e" opacity="0.56"/><circle cx="36.5" cy="38.6" r="0.91" fill="#d6b46e" opacity="0.77"/><circle cx="203.1" cy="76.0" r="0.34" fill="#d6b46e" opacity="0.51"/><circle cx="31.5" cy="76.3" r="0.47" fill="#d6b46e" opacity="0.78"/><circle cx="157.2" cy="9.1" r="1.75" fill="#d6b46e" opacity="0.70"/><circle cx="229.9" cy="20.7" r="0.42" fill="#d6b46e" opacity="0.67"/><circle cx="170.7" cy="131.3" r="0.53" fill="#d6b46e" opacity="0.28"/><circle cx="142.1" cy="24.9" r="1.42" fill="#d6b46e" opacity="0.44"/><circle cx="40.9" cy="6.7" r="0.94" fill="#d6b46e" opacity="0.43"/><circle cx="0.6" cy="11.6" r="0.99" fill="#d6b46e" opacity="0.35"/><circle cx="164.1" cy="48.6" r="0.88" fill="#d6b46e" opacity="0.17"/><circle cx="162.6" cy="85.8" r="0.46" fill="#d6b46e" opacity="0.52"/><circle cx="10.9" cy="55.8" r="0.56" fill="#d6b46e" opacity="0.20"/><circle cx="7.0" cy="31.8" r="1.16" fill="#d6b46e" opacity="0.26"/><circle cx="294.3" cy="0.2" r="0.45" fill="#d6b46e" opacity="0.78"/><circle cx="224.8" cy="6.2" r="0.38" fill="#d6b46e" opacity="0.55"/><circle cx="132.2" cy="31.6" r="0.41" fill="#d6b46e" opacity="0.14"/><circle cx="103.0" cy="52.0" r="0.44" fill="#d6b46e" opacity="0.69"/><circle cx="3.6" cy="94.3" r="1.58" fill="#d6b46e" opacity="0.82"/><circle cx="2.8" cy="15.9" r="1.06" fill="#d6b46e" opacity="0.14"/><circle cx="297.8" cy="79.8" r="0.46" fill="#d6b46e" opacity="0.44"/><circle cx="31.2" cy="2.3" r="0.48" fill="#d6b46e" opacity="0.82"/><circle cx="259.0" cy="120.0" r="0.69" fill="#d6b46e" opacity="0.30"/><circle cx="6.5" cy="43.8" r="0.66" fill="#d6b46e" opacity="0.71"/><circle cx="22.4" cy="96.6" r="0.61" fill="#d6b46e" opacity="0.36"/><circle cx="117.2" cy="43.5" r="0.36" fill="#d6b46e" opacity="0.42"/><circle cx="46.3" cy="82.7" r="1.45" fill="#d6b46e" opacity="0.25"/><circle cx="175.3" cy="122.0" r="1.32" fill="#d6b46e" opacity="0.34"/><circle cx="36.2" cy="0.8" r="0.35" fill="#d6b46e" opacity="0.68"/><circle cx="162.7" cy="48.0" r="0.75" fill="#d6b46e" opacity="0.32"/><circle cx="63.7" cy="80.9" r="0.99" fill="#d6b46e" opacity="0.29"/><circle cx="271.9" cy="130.1" r="1.44" fill="#d6b46e" opacity="0.43"/><circle cx="278.7" cy="6.6" r="1.53" fill="#d6b46e" opacity="0.64"/><circle cx="140.0" cy="3.9" r="0.67" fill="#d6b46e" opacity="0.69"/><circle cx="115.5" cy="50.3" r="1.67" fill="#d6b46e" opacity="0.41"/><circle cx="276.4" cy="67.7" r="1.32" fill="#d6b46e" opacity="0.52"/><circle cx="292.5" cy="103.4" r="0.55" fill="#d6b46e" opacity="0.42"/><circle cx="285.1" cy="22.9" r="1.67" fill="#d6b46e" opacity="0.69"/><circle cx="105.9" cy="36.0" r="1.75" fill="#d6b46e" opacity="0.71"/><circle cx="179.4" cy="61.9" r="1.44" fill="#d6b46e" opacity="0.75"/><circle cx="217.0" cy="64.0" r="1.60" fill="#d6b46e" opacity="0.81"/><circle cx="291.7" cy="85.0" r="1.58" fill="#d6b46e" opacity="0.33"/><circle cx="132.9" cy="68.8" r="1.13" fill="#d6b46e" opacity="0.36"/><circle cx="76.2" cy="112.6" r="0.68" fill="#d6b46e" opacity="0.18"/><circle cx="281.9" cy="113.2" r="1.33" fill="#d6b46e" opacity="0.14"/><circle cx="5.3" cy="46.6" r="1.72" fill="#d6b46e" opacity="0.80"/><circle cx="281.6" cy="41.5" r="1.06" fill="#d6b46e" opacity="0.78"/><circle cx="260.5" cy="99.8" r="0.47" fill="#d6b46e" opacity="0.69"/><path d="M1.4 11.9 l -4.2 -4.7" stroke="#d6b46e" stroke-width=".6" opacity=".3"/><path d="M116.2 44.8 l -4.7 5.3" stroke="#d6b46e" stroke-width=".6" opacity=".3"/><path d="M118.5 113.0 l -1.9 0.0" stroke="#d6b46e" stroke-width=".6" opacity=".3"/><path d="M117.9 56.4 l 5.8 -3.3" stroke="#d6b46e" stroke-width=".6" opacity=".3"/><path d="M67.7 121.1 l 3.6 3.4" stroke="#d6b46e" stroke-width=".6" opacity=".3"/><path d="M153.8 109.4 l 1.7 4.1" stroke="#d6b46e" stroke-width=".6" opacity=".3"/><path d="M285.0 56.7 l -4.0 -4.0" stroke="#d6b46e" stroke-width=".6" opacity=".3"/><path d="M20.2 44.4 l -2.0 6.7" stroke="#d6b46e" stroke-width=".6" opacity=".3"/><path d="M44.7 90.6 l 4.7 6.8" stroke="#d6b46e" stroke-width=".6" opacity=".3"/><path d="M80.5 39.3 l 5.9 -7.8" stroke="#d6b46e" stroke-width=".6" opacity=".3"/><path d="M191.0 60.7 l 0.7 -2.5" stroke="#d6b46e" stroke-width=".6" opacity=".3"/><path d="M218.4 31.0 l 2.9 4.0" stroke="#d6b46e" stroke-width=".6" opacity=".3"/><path d="M261.9 54.8 l -2.4 6.8" stroke="#d6b46e" stroke-width=".6" opacity=".3"/><path d="M84.6 71.0 l -3.3 5.6" stroke="#d6b46e" stroke-width=".6" opacity=".3"/><path d="M208.9 76.0 l 5.4 -1.1" stroke="#d6b46e" stroke-width=".6" opacity=".3"/><path d="M37.1 28.7 l 4.9 -6.2" stroke="#d6b46e" stroke-width=".6" opacity=".3"/><path d="M108.1 113.5 l -2.5 -6.9" stroke="#d6b46e" stroke-width=".6" opacity=".3"/><path d="M75.2 94.5 l 1.2 -7.0" stroke="#d6b46e" stroke-width=".6" opacity=".3"/><path d="M267.2 88.8 l 2.6 -4.8" stroke="#d6b46e" stroke-width=".6" opacity=".3"/><path d="M67.8 104.0 l 1.1 -5.5" stroke="#d6b46e" stroke-width=".6" opacity=".3"/><path d="M224.9 75.4 l 1.6 0.7" stroke="#d6b46e" stroke-width=".6" opacity=".3"/><path d="M75.0 57.7 l 1.7 0.8" stroke="#d6b46e" stroke-width=".6" opacity=".3"/><path d="M244.4 128.8 l -2.5 7.8" stroke="#d6b46e" stroke-width=".6" opacity=".3"/><path d="M163.1 121.4 l -1.8 -1.3" stroke="#d6b46e" stroke-width=".6" opacity=".3"/><path d="M201.0 127.0 l 2.2 7.1" stroke="#d6b46e" stroke-width=".6" opacity=".3"/><path d="M14.4 106.6 l -3.3 5.8" stroke="#d6b46e" stroke-width=".6" opacity=".3"/></svg>