<svg width="1200" height="528" viewBox="0 0 300 132" preserveAspectRatio="xMidYMid meet" xmlns="http://www.w3.org/2000/svg"><rect width="300" height="132" fill="#0a0705"/><path d="M110.0 116.2 Q 109.8 85.8 114.7 60.9 Q 123.0 88.5 124.0 116.2 Z" fill="#82b698" fill-opacity="0.08" stroke="#82b698" stroke-width=".9" opacity="0.35"/><path d="M121.0 116.2 Q 122.0 77.7 125.3 46.2 Q 134.0 81.2 135.0 116.2 Z" fill="#82b698" fill-opacity="0.10" stroke="#82b698" stroke-width=".9" opacity="0.51"/><path d="M132.0 116.2 Q 136.3 60.8 138.3 15.5 Q 145.0 65.8 146.0 116.2 Z" fill="#82b698" fill-opacity="0.12" stroke="#82b698" stroke-width=".9" opacity="0.67"/><path d="M143.0 116.2 Q 146.7 48.4 153.4 -7.1 Q 156.0 54.5 157.0 116.2 Z" fill="#82b698" fill-opacity="0.14" stroke="#82b698" stroke-width=".9" opacity="0.83"/><path d="M154.0 116.2 Q 160.5 64.5 157.9 22.3 Q 167.0 69.2 168.0 116.2 Z" fill="#82b698" fill-opacity="0.16" stroke="#82b698" stroke-width=".9" opacity="0.67"/><path d="M165.0 116.2 Q 164.4 73.6 172.8 38.7 Q 178.0 77.4 179.0 116.2 Z" fill="#82b698" fill-opacity="0.18" stroke="#82b698" stroke-width=".9" opacity="0.51"/><path d="M176.0 116.2 Q 178.1 85.9 179.1 61.1 Q 189.0 88.7 190.0 116.2 Z" fill="#82b698" fill-opacity="0.20" stroke="#82b698" stroke-width=".9" opacity="0.35"/><path d="M116.0 119.2 l 26.3 3.8" stroke="#82b698" stroke-width="2.6" opacity=".55" stroke-linecap="round"/><path d="M133.0 119.2 l 29.1 2.0" stroke="#82b698" stroke-width="2.6" opacity=".55" stroke-linecap="round"/><path d="M150.0 119.2 l 30.0 0.0" stroke="#82b698" stroke-width="2.6" opacity=".55" stroke-linecap="round"/><path d="M167.0 119.2 l 29.1 -2.0" stroke="#82b698" stroke-width="2.6" opacity=".55" stroke-linecap="round"/><path d="M184.0 119.2 l 26.3 -3.8" stroke="#82b698" stroke-width="2.6" opacity=".55" stroke-linecap="round"/><circle cx="163.3" cy="21.6" r="1.07" fill="#82b698" opacity="0.42"/><circle cx="152.3" cy="87.1" r="0.88" fill="#82b698" opacity="0.46"/><circle cx="192.4" cy="87.1" r="1.24" fill="#82b698" opacity="0.79"/><circle cx="126.0" cy="84.9" r="1.19" fill="#82b698" opacity="0.27"/><circle cx="138.4" cy="95.0" r="0.54" fill="#82b698" opacity="0.62"/><circle cx="186.4" cy="39.6" r="0.48" fill="#82b698" opacity="0.59"/><circle cx="124.8" cy="14.1" r="0.60" fill="#82b698" opacity="0.25"/><circle cx="134.9" cy="90.1" r="0.49" fill="#82b698" opacity="0.33"/><circle cx="188.5" cy="16.2" r="1.43" fill="#82b698" opacity="0.42"/><circle cx="177.6" cy="102.3" r="1.37" fill="#82b698" opacity="0.24"/><circle cx="116.7" cy="110.7" r="1.36" fill="#82b698" opacity="0.65"/><circle cx="113.3" cy="26.9" r="0.44" fill="#82b698" opacity="0.24"/><circle cx="189.7" cy="115.1" r="0.44" fill="#82b698" opacity="0.73"/><circle cx="145.7" cy="64.2" r="0.82" fill="#82b698" opacity="0.61"/><circle cx="129.3" cy="68.4" r="0.62" fill="#82b698" opacity="0.64"/><circle cx="172.5" cy="110.9" r="1.21" fill="#82b698" opacity="0.36"/><circle cx="122.3" cy="30.4" r="1.48" fill="#82b698" opacity="0.64"/><circle cx="159.6" cy="70.8" r="0.79" fill="#82b698" opacity="0.55"/><circle cx="140.8" cy="111.9" r="0.54" fill="#82b698" opacity="0.38"/><circle cx="160.8" cy="79.5" r="0.86" fill="#82b698" opacity="0.63"/><circle cx="166.4" cy="102.5" r="0.86" fill="#82b698" opacity="0.56"/><circle cx="163.4" cy="10.7" r="0.82" fill="#82b698" opacity="0.37"/><circle cx="151.9" cy="68.5" r="1.18" fill="#82b698" opacity="0.59"/><circle cx="119.2" cy="56.6" r="1.26" fill="#82b698" opacity="0.74"/><circle cx="167.3" cy="20.3" r="0.99" fill="#82b698" opacity="0.65"/><circle cx="161.5" cy="63.1" r="1.38" fill="#82b698" opacity="0.24"/><path d="M0 116.2 H 300" stroke="#82b698" stroke-width=".8" opacity=".35"/></svg>