<svg width="1200" height="528" viewBox="0 0 300 132" preserveAspectRatio="xMidYMid meet" xmlns="http://www.w3.org/2000/svg"><rect width="300" height="132" fill="#08090a"/><path d="M50.0 95.0 Q 30.9 66.0 53.9 13.2 Q 69.1 66.0 50.0 95.0 Z" fill="#82b698" fill-opacity=".13" stroke="#82b698" stroke-width="1.1" opacity=".88"/><path d="M50.0 95.0 L 53.9 13.2" stroke="#82b698" stroke-width="1" opacity=".85"/><path d="M50.4 86.9 q -2.9 -3 -5.3 -9" stroke="#82b698" stroke-width=".5" fill="none" opacity=".45"/><path d="M50.4 86.9 q 2.9 -3 5.3 -9" stroke="#82b698" stroke-width=".5" fill="none" opacity=".45"/><path d="M50.8 78.7 q -5.5 -3 -10.1 -9" stroke="#82b698" stroke-width=".5" fill="none" opacity=".45"/><path d="M50.8 78.7 q 5.5 -3 10.1 -9" stroke="#82b698" stroke-width=".5" fill="none" opacity=".45"/><path d="M51.2 70.5 q -7.6 -3 -13.9 -9" stroke="#82b698" stroke-width=".5" fill="none" opacity=".45"/><path d="M51.2 70.5 q 7.6 -3 13.9 -9" stroke="#82b698" stroke-width=".5" fill="none" opacity=".45"/><path d="M51.6 62.3 q -9.0 -3 -16.3 -9" stroke="#82b698" stroke-width=".5" fill="none" opacity=".45"/><path d="M51.6 62.3 q 9.0 -3 16.3 -9" stroke="#82b698" stroke-width=".5" fill="none" opacity=".45"/><path d="M51.9 54.1 q -9.4 -3 -17.2 -9" stroke="#82b698" stroke-width=".5" fill="none" opacity=".45"/><path d="M51.9 54.1 q 9.4 -3 17.2 -9" stroke="#82b698" stroke-width=".5" fill="none" opacity=".45"/><path d="M52.3 45.9 q -9.0 -3 -16.3 -9" stroke="#82b698" stroke-width=".5" fill="none" opacity=".45"/><path d="M52.3 45.9 q 9.0 -3 16.3 -9" stroke="#82b698" stroke-width=".5" fill="none" opacity=".45"/><path d="M52.7 37.8 q -7.6 -3 -13.9 -9" stroke="#82b698" stroke-width=".5" fill="none" opacity=".45"/><path d="M52.7 37.8 q 7.6 -3 13.9 -9" stroke="#82b698" stroke-width=".5" fill="none" opacity=".45"/><path d="M53.1 29.6 q -5.5 -3 -10.1 -9" stroke="#82b698" stroke-width=".5" fill="none" opacity=".45"/><path d="M53.1 29.6 q 5.5 -3 10.1 -9" stroke="#82b698" stroke-width=".5" fill="none" opacity=".45"/><path d="M53.5 21.4 q -2.9 -3 -5.3 -9" stroke="#82b698" stroke-width=".5" fill="none" opacity=".45"/><path d="M53.5 21.4 q 2.9 -3 5.3 -9" stroke="#82b698" stroke-width=".5" fill="none" opacity=".45"/><path d="M150.0 95.0 Q 131.9 66.0 157.5 13.2 Q 168.1 66.0 150.0 95.0 Z" fill="#82b698" fill-opacity=".13" stroke="#82b698" stroke-width="1.1" opacity=".88"/><path d="M150.0 95.0 L 157.5 13.2" stroke="#82b698" stroke-width="1" opacity=".85"/><path d="M150.8 86.9 q -2.8 -3 -5.0 -9" stroke="#82b698" stroke-width=".5" fill="none" opacity=".45"/><path d="M150.8 86.9 q 2.8 -3 5.0 -9" stroke="#82b698" stroke-width=".5" fill="none" opacity=".45"/><path d="M151.5 78.7 q -5.3 -3 -9.6 -9" stroke="#82b698" stroke-width=".5" fill="none" opacity=".45"/><path d="M151.5 78.7 q 5.3 -3 9.6 -9" stroke="#82b698" stroke-width=".5" fill="none" opacity=".45"/><path d="M152.3 70.5 q -7.3 -3 -13.2 -9" stroke="#82b698" stroke-width=".5" fill="none" opacity=".45"/><path d="M152.3 70.5 q 7.3 -3 13.2 -9" stroke="#82b698" stroke-width=".5" fill="none" opacity=".45"/><path d="M153.0 62.3 q -8.5 -3 -15.5 -9" stroke="#82b698" stroke-width=".5" fill="none" opacity=".45"/><path d="M153.0 62.3 q 8.5 -3 15.5 -9" stroke="#82b698" stroke-width=".5" fill="none" opacity=".45"/><path d="M153.8 54.1 q -9.0 -3 -16.3 -9" stroke="#82b698" stroke-width=".5" fill="none" opacity=".45"/><path d="M153.8 54.1 q 9.0 -3 16.3 -9" stroke="#82b698" stroke-width=".5" fill="none" opacity=".45"/><path d="M154.5 45.9 q -8.5 -3 -15.5 -9" stroke="#82b698" stroke-width=".5" fill="none" opacity=".45"/><path d="M154.5 45.9 q 8.5 -3 15.5 -9" stroke="#82b698" stroke-width=".5" fill="none" opacity=".45"/><path d="M155.3 37.8 q -7.3 -3 -13.2 -9" stroke="#82b698" stroke-width=".5" fill="none" opacity=".45"/><path d="M155.3 37.8 q 7.3 -3 13.2 -9" stroke="#82b698" stroke-width=".5" fill="none" opacity=".45"/><path d="M156.0 29.6 q -5.3 -3 -9.6 -9" stroke="#82b698" stroke-width=".5" fill="none" opacity=".45"/><path d="M156.0 29.6 q 5.3 -3 9.6 -9" stroke="#82b698" stroke-width=".5" fill="none" opacity=".45"/><path d="M156.8 21.4 q -2.8 -3 -5.0 -9" stroke="#82b698" stroke-width=".5" fill="none" opacity=".45"/><path d="M156.8 21.4 q 2.8 -3 5.0 -9" stroke="#82b698" stroke-width=".5" fill="none" opacity=".45"/><path d="M250.0 95.0 Q 228.2 66.0 258.9 13.2 Q 271.8 66.0 250.0 95.0 Z" fill="#82b698" fill-opacity=".13" stroke="#82b698" stroke-width="1.1" opacity=".88"/><path d="M250.0 95.0 L 258.9 13.2" stroke="#82b698" stroke-width="1" opacity=".85"/><path d="M250.9 86.9 q -3.3 -3 -6.1 -9" stroke="#82b698" stroke-width=".5" fill="none" opacity=".45"/><path d="M250.9 86.9 q 3.3 -3 6.1 -9" stroke="#82b698" stroke-width=".5" fill="none" opacity=".45"/><path d="M251.8 78.7 q -6.3 -3 -11.5 -9" stroke="#82b698" stroke-width=".5" fill="none" opacity=".45"/><path d="M251.8 78.7 q 6.3 -3 11.5 -9" stroke="#82b698" stroke-width=".5" fill="none" opacity=".45"/><path d="M252.7 70.5 q -8.7 -3 -15.9 -9" stroke="#82b698" stroke-width=".5" fill="none" opacity=".45"/><path d="M252.7 70.5 q 8.7 -3 15.9 -9" stroke="#82b698" stroke-width=".5" fill="none" opacity=".45"/><path d="M253.6 62.3 q -10.3 -3 -18.6 -9" stroke="#82b698" stroke-width=".5" fill="none" opacity=".45"/><path d="M253.6 62.3 q 10.3 -3 18.6 -9" stroke="#82b698" stroke-width=".5" fill="none" opacity=".45"/><path d="M254.5 54.1 q -10.8 -3 -19.6 -9" stroke="#82b698" stroke-width=".5" fill="none" opacity=".45"/><path d="M254.5 54.1 q 10.8 -3 19.6 -9" stroke="#82b698" stroke-width=".5" fill="none" opacity=".45"/><path d="M255.3 45.9 q -10.3 -3 -18.6 -9" stroke="#82b698" stroke-width=".5" fill="none" opacity=".45"/><path d="M255.3 45.9 q 10.3 -3 18.6 -9" stroke="#82b698" stroke-width=".5" fill="none" opacity=".45"/><path d="M256.2 37.8 q -8.7 -3 -15.9 -9" stroke="#82b698" stroke-width=".5" fill="none" opacity=".45"/><path d="M256.2 37.8 q 8.7 -3 15.9 -9" stroke="#82b698" stroke-width=".5" fill="none" opacity=".45"/><path d="M257.1 29.6 q -6.3 -3 -11.5 -9" stroke="#82b698" stroke-width=".5" fill="none" opacity=".45"/><path d="M257.1 29.6 q 6.3 -3 11.5 -9" stroke="#82b698" stroke-width=".5" fill="none" opacity=".45"/><path d="M258.0 21.4 q -3.3 -3 -6.1 -9" stroke="#82b698" stroke-width=".5" fill="none" opacity=".45"/><path d="M258.0 21.4 q 3.3 -3 6.1 -9" stroke="#82b698" stroke-width=".5" fill="none" opacity=".45"/></svg>