<svg width="1200" height="528" viewBox="0 0 300 132" preserveAspectRatio="xMidYMid meet" xmlns="http://www.w3.org/2000/svg"><rect width="300" height="132" fill="#08090a"/><path d="M 15.0 68.6 L 31.1 50.0 L 47.1 45.4 L 63.2 43.7 L 79.3 43.7 L 95.4 44.7 L 111.4 46.5 L 127.5 48.7 L 143.6 51.2 L 159.6 54.0 L 175.7 56.9 L 191.8 59.9 L 207.9 62.8 L 223.9 65.8 L 240.0 68.6 L 240.0 68.6 L 223.9 71.5 L 207.9 74.4 L 191.8 77.4 L 175.7 80.4 L 159.6 83.3 L 143.6 86.0 L 127.5 88.6 L 111.4 90.8 L 95.4 92.5 L 79.3 93.6 L 63.2 93.5 L 47.1 91.9 L 31.1 87.3 L 15.0 68.6 Z" fill="#82b698" fill-opacity=".14" stroke="#82b698" stroke-width="1.15" opacity=".9"/><path d="M15.0 67.6 L -19.0 71.6 L 15.0 73.6 Z" fill="#82b698" fill-opacity=".2" stroke="#82b698" stroke-width="1" opacity=".9"/><path d="M-15.0 70.1 v 2.5" stroke="#82b698" stroke-width=".6" opacity=".7"/><path d="M-11.0 70.1 v 2.5" stroke="#82b698" stroke-width=".6" opacity=".7"/><path d="M-7.0 70.1 v 2.5" stroke="#82b698" stroke-width=".6" opacity=".7"/><path d="M-3.0 70.1 v 2.5" stroke="#82b698" stroke-width=".6" opacity=".7"/><path d="M1.0 70.1 v 2.5" stroke="#82b698" stroke-width=".6" opacity=".7"/><path d="M5.0 70.1 v 2.5" stroke="#82b698" stroke-width=".6" opacity=".7"/><path d="M9.0 70.1 v 2.5" stroke="#82b698" stroke-width=".6" opacity=".7"/><path d="M13.0 70.1 v 2.5" stroke="#82b698" stroke-width=".6" opacity=".7"/><circle cx="31.0" cy="64.6" r="7" fill="none" stroke="#82b698" stroke-width="1.2" opacity=".95"/><circle cx="31.0" cy="64.6" r="3" fill="#82b698" opacity=".9"/><path d="M132.0 44.8 l 12 -20 l 10 20 Z" fill="#82b698" fill-opacity=".18" stroke="#82b698" stroke-width="1" opacity=".85"/><path d="M90.0 88.7 q 14 12 26 12 q -12 3 -28 -4 Z" fill="#82b698" fill-opacity=".16" stroke="#82b698" stroke-width=".9" opacity=".8"/><path d="M240.0 68.6 l 26 -26 l -4 26 l 24 24 l -28 -18 Z" fill="#82b698" fill-opacity=".16" stroke="#82b698" stroke-width="1" opacity=".85"/></svg>