<svg width="1200" height="528" viewBox="0 0 300 132" preserveAspectRatio="xMidYMid meet" xmlns="http://www.w3.org/2000/svg"><rect width="300" height="132" fill="#08090a"/><ellipse cx="150" cy="66" rx="60.0" ry="50.2" fill="none" stroke="#82b698" stroke-width="1.30" opacity="0.90"/><ellipse cx="150" cy="66" rx="49.8" ry="41.6" fill="none" stroke="#82b698" stroke-width="1.10" opacity="0.74"/><ellipse cx="150" cy="66" rx="39.6" ry="33.1" fill="none" stroke="#82b698" stroke-width="0.90" opacity="0.58"/><ellipse cx="150" cy="66" rx="29.4" ry="24.6" fill="none" stroke="#82b698" stroke-width="0.70" opacity="0.42"/><ellipse cx="150" cy="66" rx="25.2" ry="21.1" fill="#82b698" fill-opacity=".16" stroke="#82b698" stroke-width=".9" opacity=".8"/><path d="M144.0 68.0 q 5 -9 11 -3 q 5 5 -1 10 q -6 4 -10 -2" fill="none" stroke="#82b698" stroke-width="1.1" opacity=".95"/><circle cx="162.5" cy="100.8" r="0.83" fill="#82b698" opacity="0.30"/><circle cx="138.0" cy="110.1" r="1.02" fill="#82b698" opacity="0.30"/><circle cx="128.5" cy="38.7" r="0.72" fill="#82b698" opacity="0.30"/><circle cx="114.6" cy="49.7" r="0.85" fill="#82b698" opacity="0.30"/><circle cx="183.7" cy="73.6" r="0.61" fill="#82b698" opacity="0.30"/><circle cx="114.1" cy="42.0" r="0.81" fill="#82b698" opacity="0.30"/><circle cx="107.5" cy="46.5" r="1.48" fill="#82b698" opacity="0.30"/><circle cx="153.1" cy="107.2" r="0.44" fill="#82b698" opacity="0.30"/><circle cx="183.1" cy="60.5" r="0.68" fill="#82b698" opacity="0.30"/><circle cx="107.2" cy="85.4" r="0.80" fill="#82b698" opacity="0.30"/><circle cx="101.6" cy="57.5" r="1.13" fill="#82b698" opacity="0.30"/><circle cx="168.0" cy="104.3" r="0.53" fill="#82b698" opacity="0.30"/><circle cx="161.7" cy="92.9" r="0.86" fill="#82b698" opacity="0.30"/><circle cx="184.4" cy="62.5" r="1.12" fill="#82b698" opacity="0.30"/><circle cx="124.1" cy="37.3" r="1.07" fill="#82b698" opacity="0.30"/><circle cx="150.3" cy="95.8" r="1.03" fill="#82b698" opacity="0.30"/><circle cx="118.2" cy="46.4" r="0.88" fill="#82b698" opacity="0.30"/><circle cx="147.1" cy="109.3" r="0.82" fill="#82b698" opacity="0.30"/><circle cx="173.5" cy="103.8" r="1.01" fill="#82b698" opacity="0.30"/><circle cx="166.9" cy="29.2" r="0.71" fill="#82b698" opacity="0.30"/><circle cx="173.5" cy="33.0" r="0.82" fill="#82b698" opacity="0.30"/><circle cx="108.8" cy="68.3" r="1.44" fill="#82b698" opacity="0.30"/><circle cx="96.6" cy="57.1" r="1.16" fill="#82b698" opacity="0.30"/><circle cx="144.2" cy="38.7" r="0.42" fill="#82b698" opacity="0.30"/><circle cx="190.1" cy="70.1" r="0.41" fill="#82b698" opacity="0.30"/><circle cx="178.7" cy="48.8" r="0.58" fill="#82b698" opacity="0.30"/></svg>