<svg width="1200" height="528" viewBox="0 0 300 132" preserveAspectRatio="xMidYMid meet" xmlns="http://www.w3.org/2000/svg"><defs><linearGradient id="sp97666" x1="0" y1="0" x2="0" y2="1">
        <stop offset="0" stop-color="#82b698" stop-opacity=".28"/>
        <stop offset="1" stop-color="#82b698" stop-opacity=".03"/></linearGradient></defs><rect width="300" height="132" fill="#0a0908"/><rect width="300" height="60.720000000000006" fill="url(#sp97666)"/><circle cx="222.0" cy="24.3" r="11" fill="#82b698" opacity=".45"/><path d="M0 60.7 L 0 60.7 L 16 59.5 L 32 58.3 L 48 57.2 L 64 56.3 L 80 55.5 L 96 55.0 L 112 54.8 L 128 54.7 L 144 55.0 L 160 55.5 L 176 56.2 L 192 57.1 L 208 58.2 L 224 59.4 L 240 60.6 L 256 59.6 L 272 58.4 L 288 57.3 L 300 60.7 L 0 60.7 Z" fill="#82b698" opacity="0.09"/><path d="M0 57.7 L 0 45.9 L 16 45.7 L 32 46.0 L 48 46.8 L 64 48.0 L 80 49.6 L 96 51.5 L 112 53.6 L 128 55.9 L 144 55.3 L 160 53.1 L 176 51.0 L 192 49.2 L 208 47.7 L 224 46.6 L 240 45.9 L 256 45.7 L 272 46.0 L 288 46.7 L 300 60.7 L 0 60.7 Z" fill="#82b698" opacity="0.16"/><path d="M0 54.7 L 0 47.4 L 16 50.6 L 32 51.5 L 48 48.3 L 64 45.2 L 80 42.4 L 96 40.1 L 112 38.4 L 128 37.2 L 144 36.7 L 160 36.9 L 176 37.8 L 192 39.4 L 208 41.5 L 224 44.1 L 240 47.0 L 256 50.2 L 272 51.9 L 288 48.6 L 300 60.7 L 0 60.7 Z" fill="#82b698" opacity="0.23"/><rect y="60.7" width="300" height="71.3" fill="#82b698" opacity=".06"/><path d="M0 60.7 H 300" stroke="#82b698" stroke-width=".8" opacity=".5"/><path d="M 53.7 123.3 L 50.0 123.5 L 100.0 119.7 L 150.0 123.4 L 200.0 127.2 L 250.0 125.2 L 300.0 119.9" stroke="#82b698" stroke-width=".7" fill="none" opacity="0.27"/><path d="M 45.4 100.4 L 50.0 99.7 L 100.0 103.2 L 150.0 103.5 L 200.0 99.4 L 250.0 99.8 L 300.0 99.5" stroke="#82b698" stroke-width=".7" fill="none" opacity="0.38"/><path d="M 51.9 100.9 L 50.0 103.5 L 100.0 99.6 L 150.0 97.8 L 200.0 99.0 L 250.0 98.0 L 300.0 98.3" stroke="#82b698" stroke-width=".7" fill="none" opacity="0.29"/><path d="M 10.1 119.3 L 50.0 116.8 L 100.0 121.1 L 150.0 122.6 L 200.0 121.0 L 250.0 122.4 L 300.0 121.9" stroke="#82b698" stroke-width=".7" fill="none" opacity="0.41"/><path d="M 28.1 114.4 L 50.0 114.7 L 100.0 110.5 L 150.0 118.2 L 200.0 116.4 L 250.0 115.9 L 300.0 111.5" stroke="#82b698" stroke-width=".7" fill="none" opacity="0.21"/><path d="M 2.8 104.1 L 50.0 107.7 L 100.0 105.6 L 150.0 104.8 L 200.0 102.1 L 250.0 106.7 L 300.0 100.9" stroke="#82b698" stroke-width=".7" fill="none" opacity="0.24"/><path d="M 26.6 111.5 L 50.0 110.2 L 100.0 112.2 L 150.0 108.2 L 200.0 112.9 L 250.0 114.4 L 300.0 114.1" stroke="#82b698" stroke-width=".7" fill="none" opacity="0.38"/><path d="M 40.5 80.0 L 50.0 83.5 L 100.0 77.4 L 150.0 76.1 L 200.0 78.3 L 250.0 78.7 L 300.0 82.4" stroke="#82b698" stroke-width=".7" fill="none" opacity="0.43"/><path d="M 66.4 122.3 L 50.0 125.8 L 100.0 120.5 L 150.0 119.2 L 200.0 121.5 L 250.0 119.4 L 300.0 125.9" stroke="#82b698" stroke-width=".7" fill="none" opacity="0.30"/><path d="M 41.1 67.8 L 50.0 68.6 L 100.0 64.1 L 150.0 66.8 L 200.0 66.9 L 250.0 69.4 L 300.0 71.6" stroke="#82b698" stroke-width=".7" fill="none" opacity="0.46"/><circle cx="26.8" cy="128.4" r="0.60" fill="#82b698" opacity="0.36"/><circle cx="186.2" cy="108.5" r="0.52" fill="#82b698" opacity="0.18"/><circle cx="277.8" cy="87.2" r="1.14" fill="#82b698" opacity="0.35"/><circle cx="163.9" cy="126.6" r="0.64" fill="#82b698" opacity="0.30"/><circle cx="17.1" cy="114.9" r="1.17" fill="#82b698" opacity="0.23"/><circle cx="166.2" cy="61.4" r="0.88" fill="#82b698" opacity="0.31"/><circle cx="167.7" cy="105.8" r="0.65" fill="#82b698" opacity="0.26"/><circle cx="297.2" cy="123.2" r="0.79" fill="#82b698" opacity="0.28"/><circle cx="26.6" cy="106.2" r="1.14" fill="#82b698" opacity="0.32"/><circle cx="129.9" cy="100.2" r="1.29" fill="#82b698" opacity="0.22"/><circle cx="134.3" cy="125.1" r="0.78" fill="#82b698" opacity="0.21"/><circle cx="9.8" cy="106.7" r="0.72" fill="#82b698" opacity="0.25"/><circle cx="62.8" cy="73.2" r="0.81" fill="#82b698" opacity="0.31"/><circle cx="277.6" cy="105.5" r="0.30" fill="#82b698" opacity="0.26"/><circle cx="122.1" cy="117.1" r="0.66" fill="#82b698" opacity="0.13"/><circle cx="209.9" cy="130.8" r="0.40" fill="#82b698" opacity="0.23"/><circle cx="86.4" cy="92.7" r="1.32" fill="#82b698" opacity="0.25"/><circle cx="280.0" cy="69.1" r="0.59" fill="#82b698" opacity="0.37"/><circle cx="37.9" cy="117.4" r="0.57" fill="#82b698" opacity="0.23"/><circle cx="235.8" cy="68.8" r="0.43" fill="#82b698" opacity="0.18"/><circle cx="30.4" cy="119.7" r="0.87" fill="#82b698" opacity="0.12"/><circle cx="197.5" cy="80.7" r="0.81" fill="#82b698" opacity="0.18"/><circle cx="70.5" cy="68.5" r="0.35" fill="#82b698" opacity="0.25"/><circle cx="274.2" cy="98.6" r="0.43" fill="#82b698" opacity="0.34"/><circle cx="118.8" cy="116.9" r="0.82" fill="#82b698" opacity="0.15"/><circle cx="198.3" cy="100.6" r="0.60" fill="#82b698" opacity="0.23"/><circle cx="108.8" cy="92.3" r="1.12" fill="#82b698" opacity="0.12"/><circle cx="179.6" cy="119.8" r="0.77" fill="#82b698" opacity="0.22"/><circle cx="285.1" cy="112.4" r="0.84" fill="#82b698" opacity="0.11"/><circle cx="277.6" cy="88.6" r="1.23" fill="#82b698" opacity="0.35"/><circle cx="60.5" cy="119.9" r="0.41" fill="#82b698" opacity="0.32"/><circle cx="92.7" cy="96.1" r="0.99" fill="#82b698" opacity="0.34"/><circle cx="191.3" cy="115.3" r="0.59" fill="#82b698" opacity="0.23"/><circle cx="276.2" cy="62.6" r="0.66" fill="#82b698" opacity="0.31"/><circle cx="171.6" cy="92.3" r="0.45" fill="#82b698" opacity="0.27"/><circle cx="159.0" cy="113.6" r="0.42" fill="#82b698" opacity="0.10"/><circle cx="146.6" cy="102.0" r="0.36" fill="#82b698" opacity="0.14"/><circle cx="199.2" cy="84.7" r="0.83" fill="#82b698" opacity="0.21"/><circle cx="144.3" cy="89.5" r="1.14" fill="#82b698" opacity="0.12"/><circle cx="247.9" cy="82.3" r="0.98" fill="#82b698" opacity="0.11"/></svg>