<svg width="1200" height="528" viewBox="0 0 300 132" preserveAspectRatio="xMidYMid meet" xmlns="http://www.w3.org/2000/svg"><rect width="300" height="132" fill="#0b0a09"/><path d="M0 80.4 H 300" stroke="#d6b46e" stroke-width=".5" opacity="0.09"/><path d="M0 87.1 H 300" stroke="#d6b46e" stroke-width=".5" opacity="0.09"/><path d="M0 119.7 H 300" stroke="#d6b46e" stroke-width=".5" opacity="0.09"/><path d="M0 110.5 H 300" stroke="#d6b46e" stroke-width=".5" opacity="0.11"/><path d="M0 80.6 H 300" stroke="#d6b46e" stroke-width=".5" opacity="0.07"/><path d="M0 87.0 H 300" stroke="#d6b46e" stroke-width=".5" opacity="0.05"/><path d="M0 85.0 H 300" stroke="#d6b46e" stroke-width=".5" opacity="0.06"/><path d="M0 28.2 H 300" stroke="#d6b46e" stroke-width=".5" opacity="0.08"/><path d="M0 42.0 H 300" stroke="#d6b46e" stroke-width=".5" opacity="0.09"/><path d="M0 59.1 H 300" stroke="#d6b46e" stroke-width=".5" opacity="0.07"/><path d="M0 1.7 H 300" stroke="#d6b46e" stroke-width=".5" opacity="0.10"/><path d="M0 106.6 H 300" stroke="#d6b46e" stroke-width=".5" opacity="0.07"/><path d="M0 17.6 H 300" stroke="#d6b46e" stroke-width=".5" opacity="0.09"/><path d="M0 34.9 H 300" stroke="#d6b46e" stroke-width=".5" opacity="0.09"/><path d="M29.3 132 V 21.1 q 9.9 -9 19.8 0 V 132 Z" fill="#d6b46e" fill-opacity=".08" stroke="#d6b46e" stroke-width="1" opacity=".8"/><ellipse cx="39.2" cy="31.7" rx="4.7" ry="3.2" fill="none" stroke="#d6b46e" stroke-width=".6" opacity=".55"/><ellipse cx="39.2" cy="45.3" rx="4.7" ry="3.2" fill="none" stroke="#d6b46e" stroke-width=".6" opacity=".55"/><ellipse cx="39.2" cy="58.8" rx="4.7" ry="3.2" fill="none" stroke="#d6b46e" stroke-width=".6" opacity=".55"/><ellipse cx="39.2" cy="72.4" rx="4.7" ry="3.2" fill="none" stroke="#d6b46e" stroke-width=".6" opacity=".55"/><ellipse cx="39.2" cy="86.0" rx="4.7" ry="3.2" fill="none" stroke="#d6b46e" stroke-width=".6" opacity=".55"/><ellipse cx="39.2" cy="99.6" rx="4.7" ry="3.2" fill="none" stroke="#d6b46e" stroke-width=".6" opacity=".55"/><ellipse cx="39.2" cy="113.1" rx="4.7" ry="3.2" fill="none" stroke="#d6b46e" stroke-width=".6" opacity=".55"/><path d="M107.5 132 V 21.1 q 6.6 -9 13.1 0 V 132 Z" fill="#d6b46e" fill-opacity=".08" stroke="#d6b46e" stroke-width="1" opacity=".8"/><ellipse cx="114.1" cy="31.7" rx="3.2" ry="2.1" fill="none" stroke="#d6b46e" stroke-width=".6" opacity=".55"/><ellipse cx="114.1" cy="45.3" rx="3.2" ry="2.1" fill="none" stroke="#d6b46e" stroke-width=".6" opacity=".55"/><ellipse cx="114.1" cy="58.8" rx="3.2" ry="2.1" fill="none" stroke="#d6b46e" stroke-width=".6" opacity=".55"/><ellipse cx="114.1" cy="72.4" rx="3.2" ry="2.1" fill="none" stroke="#d6b46e" stroke-width=".6" opacity=".55"/><ellipse cx="114.1" cy="86.0" rx="3.2" ry="2.1" fill="none" stroke="#d6b46e" stroke-width=".6" opacity=".55"/><ellipse cx="114.1" cy="99.6" rx="3.2" ry="2.1" fill="none" stroke="#d6b46e" stroke-width=".6" opacity=".55"/><ellipse cx="114.1" cy="113.1" rx="3.2" ry="2.1" fill="none" stroke="#d6b46e" stroke-width=".6" opacity=".55"/><path d="M179.1 132 V 21.1 q 7.2 -9 14.4 0 V 132 Z" fill="#d6b46e" fill-opacity=".08" stroke="#d6b46e" stroke-width="1" opacity=".8"/><ellipse cx="186.3" cy="31.7" rx="3.5" ry="2.3" fill="none" stroke="#d6b46e" stroke-width=".6" opacity=".55"/><ellipse cx="186.3" cy="45.3" rx="3.5" ry="2.3" fill="none" stroke="#d6b46e" stroke-width=".6" opacity=".55"/><ellipse cx="186.3" cy="58.8" rx="3.5" ry="2.3" fill="none" stroke="#d6b46e" stroke-width=".6" opacity=".55"/><ellipse cx="186.3" cy="72.4" rx="3.5" ry="2.3" fill="none" stroke="#d6b46e" stroke-width=".6" opacity=".55"/><ellipse cx="186.3" cy="86.0" rx="3.5" ry="2.3" fill="none" stroke="#d6b46e" stroke-width=".6" opacity=".55"/><ellipse cx="186.3" cy="99.6" rx="3.5" ry="2.3" fill="none" stroke="#d6b46e" stroke-width=".6" opacity=".55"/><ellipse cx="186.3" cy="113.1" rx="3.5" ry="2.3" fill="none" stroke="#d6b46e" stroke-width=".6" opacity=".55"/><path d="M246.4 132 V 21.1 q 9.7 -9 19.3 0 V 132 Z" fill="#d6b46e" fill-opacity=".08" stroke="#d6b46e" stroke-width="1" opacity=".8"/><ellipse cx="256.0" cy="31.7" rx="4.6" ry="3.1" fill="none" stroke="#d6b46e" stroke-width=".6" opacity=".55"/><ellipse cx="256.0" cy="45.3" rx="4.6" ry="3.1" fill="none" stroke="#d6b46e" stroke-width=".6" opacity=".55"/><ellipse cx="256.0" cy="58.8" rx="4.6" ry="3.1" fill="none" stroke="#d6b46e" stroke-width=".6" opacity=".55"/><ellipse cx="256.0" cy="72.4" rx="4.6" ry="3.1" fill="none" stroke="#d6b46e" stroke-width=".6" opacity=".55"/><ellipse cx="256.0" cy="86.0" rx="4.6" ry="3.1" fill="none" stroke="#d6b46e" stroke-width=".6" opacity=".55"/><ellipse cx="256.0" cy="99.6" rx="4.6" ry="3.1" fill="none" stroke="#d6b46e" stroke-width=".6" opacity=".55"/><ellipse cx="256.0" cy="113.1" rx="4.6" ry="3.1" fill="none" stroke="#d6b46e" stroke-width=".6" opacity=".55"/><circle cx="12.5" cy="58.7" r="1.7" fill="none" stroke="#d6b46e" stroke-width=".55" opacity="0.35"/><circle cx="166.0" cy="49.7" r="3.2" fill="none" stroke="#d6b46e" stroke-width=".55" opacity="0.36"/><circle cx="9.1" cy="83.8" r="2.4" fill="none" stroke="#d6b46e" stroke-width=".55" opacity="0.22"/><circle cx="132.4" cy="1.0" r="2.5" fill="none" stroke="#d6b46e" stroke-width=".55" opacity="0.46"/><circle cx="290.6" cy="15.1" r="3.2" fill="none" stroke="#d6b46e" stroke-width=".55" opacity="0.43"/><circle cx="216.9" cy="103.6" r="3.1" fill="none" stroke="#d6b46e" stroke-width=".55" opacity="0.37"/><circle cx="36.5" cy="75.6" r="3.4" fill="none" stroke="#d6b46e" stroke-width=".55" opacity="0.24"/><circle cx="134.3" cy="17.5" r="3.2" fill="none" stroke="#d6b46e" stroke-width=".55" opacity="0.43"/><circle cx="107.1" cy="50.7" r="1.6" fill="none" stroke="#d6b46e" stroke-width=".55" opacity="0.21"/><circle cx="103.7" cy="90.9" r="1.7" fill="none" stroke="#d6b46e" stroke-width=".55" opacity="0.29"/><circle cx="133.4" cy="64.5" r="2.5" fill="none" stroke="#d6b46e" stroke-width=".55" opacity="0.31"/><circle cx="198.0" cy="12.3" r="3.6" fill="none" stroke="#d6b46e" stroke-width=".55" opacity="0.21"/><circle cx="275.5" cy="78.5" r="3.2" fill="none" stroke="#d6b46e" stroke-width=".55" opacity="0.37"/><circle cx="161.8" cy="12.1" r="3.8" fill="none" stroke="#d6b46e" stroke-width=".55" opacity="0.53"/><circle cx="149.3" cy="90.6" r="1.9" fill="none" stroke="#d6b46e" stroke-width=".55" opacity="0.51"/><circle cx="297.3" cy="126.1" r="2.9" fill="none" stroke="#d6b46e" stroke-width=".55" opacity="0.36"/><circle cx="23.0" cy="111.6" r="2.7" fill="none" stroke="#d6b46e" stroke-width=".55" opacity="0.40"/><circle cx="120.1" cy="26.8" r="2.8" fill="none" stroke="#d6b46e" stroke-width=".55" opacity="0.48"/><circle cx="81.4" cy="50.8" r="2.0" fill="none" stroke="#d6b46e" stroke-width=".55" opacity="0.24"/><circle cx="183.2" cy="85.8" r="1.8" fill="none" stroke="#d6b46e" stroke-width=".55" opacity="0.42"/><circle cx="159.2" cy="39.6" r="3.2" fill="none" stroke="#d6b46e" stroke-width=".55" opacity="0.26"/><circle cx="169.5" cy="99.5" r="2.3" fill="none" stroke="#d6b46e" stroke-width=".55" opacity="0.23"/><circle cx="243.6" cy="3.1" r="1.8" fill="none" stroke="#d6b46e" stroke-width=".55" opacity="0.54"/><circle cx="153.5" cy="37.7" r="3.2" fill="none" stroke="#d6b46e" stroke-width=".55" opacity="0.24"/><circle cx="244.7" cy="66.4" r="1.7" fill="none" stroke="#d6b46e" stroke-width=".55" opacity="0.35"/><circle cx="231.5" cy="40.5" r="1.8" fill="none" stroke="#d6b46e" stroke-width=".55" opacity="0.51"/><circle cx="235.4" cy="76.6" r="3.8" fill="none" stroke="#d6b46e" stroke-width=".55" opacity="0.26"/><circle cx="20.8" cy="60.7" r="2.3" fill="none" stroke="#d6b46e" stroke-width=".55" opacity="0.23"/><circle cx="259.8" cy="91.4" r="3.4" fill="none" stroke="#d6b46e" stroke-width=".55" opacity="0.35"/><circle cx="127.3" cy="75.4" r="1.8" fill="none" stroke="#d6b46e" stroke-width=".55" opacity="0.47"/></svg>