<svg width="1200" height="528" viewBox="0 0 300 132" preserveAspectRatio="xMidYMid meet" xmlns="http://www.w3.org/2000/svg"><rect width="300" height="132" fill="#08090a"/><path d="M 108.4 84.8 L 89.5 95.5 L 86.9 110.6 L 65.1 112.2 L 45.4 114.3 L 29.2 106.7 L 19.7 96.2 L 23.8 84.8 L 20.8 73.7 L 28.5 62.3 L 45.0 54.0 L 66.5 53.2 L 81.5 63.4 L 88.0 74.5 L 109.4 84.8 Z" fill="#82b698" fill-opacity=".17" stroke="#82b698" stroke-width="1.1" opacity=".85"/><path d="M 199.9 50.0 L 182.9 62.9 L 170.8 73.5 L 153.2 81.1 L 132.4 79.2 L 109.6 77.3 L 104.0 62.3 L 95.0 50.0 L 99.3 36.3 L 115.9 28.0 L 134.3 26.4 L 154.8 14.5 L 176.7 21.7 L 186.6 36.0 L 183.6 50.0 Z" fill="#82b698" fill-opacity=".17" stroke="#82b698" stroke-width="1.1" opacity=".85"/><path d="M 302.7 62.2 L 289.3 75.2 L 269.6 79.7 L 259.1 93.1 L 240.4 85.6 L 220.3 85.4 L 216.0 72.5 L 205.9 62.2 L 202.6 47.6 L 220.0 38.7 L 240.1 37.9 L 258.2 34.0 L 282.2 34.2 L 288.9 49.3 L 294.4 62.2 Z" fill="#82b698" fill-opacity=".17" stroke="#82b698" stroke-width="1.1" opacity=".85"/><circle cx="278.1" cy="18.6" r="0.96" fill="#ece8dd" opacity="0.10"/><circle cx="180.9" cy="69.5" r="1.00" fill="#ece8dd" opacity="0.10"/><circle cx="133.7" cy="111.5" r="0.38" fill="#ece8dd" opacity="0.11"/><circle cx="209.4" cy="127.3" r="0.48" fill="#ece8dd" opacity="0.15"/><circle cx="24.4" cy="78.9" r="1.02" fill="#ece8dd" opacity="0.17"/><circle cx="192.2" cy="84.6" r="0.91" fill="#ece8dd" opacity="0.09"/><circle cx="130.8" cy="0.5" r="0.66" fill="#ece8dd" opacity="0.08"/><circle cx="140.5" cy="131.4" r="1.08" fill="#ece8dd" opacity="0.06"/><circle cx="144.8" cy="78.8" r="0.98" fill="#ece8dd" opacity="0.06"/><circle cx="161.0" cy="26.8" r="0.92" fill="#ece8dd" opacity="0.19"/><circle cx="142.8" cy="86.0" r="0.80" fill="#ece8dd" opacity="0.12"/><circle cx="212.8" cy="83.6" r="0.58" fill="#ece8dd" opacity="0.12"/><circle cx="276.2" cy="105.1" r="0.59" fill="#ece8dd" opacity="0.13"/><circle cx="183.0" cy="16.9" r="1.00" fill="#ece8dd" opacity="0.14"/><circle cx="181.7" cy="59.5" r="0.38" fill="#ece8dd" opacity="0.11"/><circle cx="280.7" cy="11.8" r="0.38" fill="#ece8dd" opacity="0.13"/><circle cx="210.1" cy="8.8" r="0.75" fill="#ece8dd" opacity="0.11"/><circle cx="250.8" cy="49.7" r="1.18" fill="#ece8dd" opacity="0.16"/><circle cx="273.6" cy="24.5" r="0.87" fill="#ece8dd" opacity="0.17"/><circle cx="105.1" cy="3.2" r="0.39" fill="#ece8dd" opacity="0.17"/><circle cx="212.1" cy="40.7" r="0.48" fill="#ece8dd" opacity="0.14"/><circle cx="273.2" cy="100.8" r="1.14" fill="#ece8dd" opacity="0.15"/><circle cx="178.0" cy="76.1" r="0.73" fill="#ece8dd" opacity="0.13"/><circle cx="272.0" cy="47.8" r="0.43" fill="#ece8dd" opacity="0.11"/><circle cx="140.0" cy="34.9" r="0.94" fill="#ece8dd" opacity="0.19"/><circle cx="93.5" cy="102.1" r="0.77" fill="#ece8dd" opacity="0.17"/><circle cx="5.9" cy="11.8" r="0.40" fill="#ece8dd" opacity="0.12"/><circle cx="111.8" cy="13.4" r="0.77" fill="#ece8dd" opacity="0.05"/><circle cx="63.1" cy="43.3" r="0.63" fill="#ece8dd" opacity="0.19"/><circle cx="108.5" cy="49.3" r="0.61" fill="#ece8dd" opacity="0.16"/><circle cx="239.1" cy="99.0" r="1.03" fill="#ece8dd" opacity="0.09"/><circle cx="117.3" cy="17.2" r="0.81" fill="#ece8dd" opacity="0.11"/><circle cx="280.3" cy="47.6" r="0.33" fill="#ece8dd" opacity="0.15"/><circle cx="87.0" cy="108.7" r="0.61" fill="#ece8dd" opacity="0.06"/><circle cx="248.9" cy="126.4" r="0.45" fill="#ece8dd" opacity="0.10"/><circle cx="163.2" cy="4.5" r="0.48" fill="#ece8dd" opacity="0.16"/><circle cx="139.7" cy="66.1" r="0.91" fill="#ece8dd" opacity="0.09"/><circle cx="89.0" cy="64.7" r="0.61" fill="#ece8dd" opacity="0.19"/><circle cx="114.5" cy="38.9" r="0.93" fill="#ece8dd" opacity="0.10"/><circle cx="124.3" cy="120.4" r="0.79" fill="#ece8dd" opacity="0.16"/></svg>