<svg width="1200" height="528" viewBox="0 0 300 132" preserveAspectRatio="xMidYMid meet" xmlns="http://www.w3.org/2000/svg"><rect width="300" height="132" fill="#0b0605"/><rect x="0" y="114.8" width="300.0" height="17.2" fill="#d6b46e" fill-opacity="0.06" stroke="#d6b46e" stroke-width=".8" opacity="0.35"/><path d="M6.0 116.8 V 130.0" stroke="#d6b46e" stroke-width=".5" opacity=".22"/><path d="M42.0 116.8 V 130.0" stroke="#d6b46e" stroke-width=".5" opacity=".22"/><path d="M78.0 116.8 V 130.0" stroke="#d6b46e" stroke-width=".5" opacity=".22"/><path d="M114.0 116.8 V 130.0" stroke="#d6b46e" stroke-width=".5" opacity=".22"/><path d="M150.0 116.8 V 130.0" stroke="#d6b46e" stroke-width=".5" opacity=".22"/><path d="M186.0 116.8 V 130.0" stroke="#d6b46e" stroke-width=".5" opacity=".22"/><path d="M222.0 116.8 V 130.0" stroke="#d6b46e" stroke-width=".5" opacity=".22"/><path d="M258.0 116.8 V 130.0" stroke="#d6b46e" stroke-width=".5" opacity=".22"/><path d="M294.0 116.8 V 130.0" stroke="#d6b46e" stroke-width=".5" opacity=".22"/><rect x="8" y="97.7" width="288.0" height="17.2" fill="#d6b46e" fill-opacity="0.08" stroke="#d6b46e" stroke-width=".8" opacity="0.43"/><path d="M14.0 99.7 V 112.8" stroke="#d6b46e" stroke-width=".5" opacity=".22"/><path d="M48.5 99.7 V 112.8" stroke="#d6b46e" stroke-width=".5" opacity=".22"/><path d="M83.0 99.7 V 112.8" stroke="#d6b46e" stroke-width=".5" opacity=".22"/><path d="M117.5 99.7 V 112.8" stroke="#d6b46e" stroke-width=".5" opacity=".22"/><path d="M152.0 99.7 V 112.8" stroke="#d6b46e" stroke-width=".5" opacity=".22"/><path d="M186.5 99.7 V 112.8" stroke="#d6b46e" stroke-width=".5" opacity=".22"/><path d="M221.0 99.7 V 112.8" stroke="#d6b46e" stroke-width=".5" opacity=".22"/><path d="M255.5 99.7 V 112.8" stroke="#d6b46e" stroke-width=".5" opacity=".22"/><path d="M290.0 99.7 V 112.8" stroke="#d6b46e" stroke-width=".5" opacity=".22"/><rect x="16" y="80.5" width="276.0" height="17.2" fill="#d6b46e" fill-opacity="0.11" stroke="#d6b46e" stroke-width=".8" opacity="0.51"/><path d="M22.0 82.5 V 95.7" stroke="#d6b46e" stroke-width=".5" opacity=".22"/><path d="M55.0 82.5 V 95.7" stroke="#d6b46e" stroke-width=".5" opacity=".22"/><path d="M88.0 82.5 V 95.7" stroke="#d6b46e" stroke-width=".5" opacity=".22"/><path d="M121.0 82.5 V 95.7" stroke="#d6b46e" stroke-width=".5" opacity=".22"/><path d="M154.0 82.5 V 95.7" stroke="#d6b46e" stroke-width=".5" opacity=".22"/><path d="M187.0 82.5 V 95.7" stroke="#d6b46e" stroke-width=".5" opacity=".22"/><path d="M220.0 82.5 V 95.7" stroke="#d6b46e" stroke-width=".5" opacity=".22"/><path d="M253.0 82.5 V 95.7" stroke="#d6b46e" stroke-width=".5" opacity=".22"/><path d="M286.0 82.5 V 95.7" stroke="#d6b46e" stroke-width=".5" opacity=".22"/><rect x="24" y="63.4" width="264.0" height="17.2" fill="#d6b46e" fill-opacity="0.14" stroke="#d6b46e" stroke-width=".8" opacity="0.59"/><path d="M30.0 65.4 V 78.5" stroke="#d6b46e" stroke-width=".5" opacity=".22"/><path d="M61.5 65.4 V 78.5" stroke="#d6b46e" stroke-width=".5" opacity=".22"/><path d="M93.0 65.4 V 78.5" stroke="#d6b46e" stroke-width=".5" opacity=".22"/><path d="M124.5 65.4 V 78.5" stroke="#d6b46e" stroke-width=".5" opacity=".22"/><path d="M156.0 65.4 V 78.5" stroke="#d6b46e" stroke-width=".5" opacity=".22"/><path d="M187.5 65.4 V 78.5" stroke="#d6b46e" stroke-width=".5" opacity=".22"/><path d="M219.0 65.4 V 78.5" stroke="#d6b46e" stroke-width=".5" opacity=".22"/><path d="M250.5 65.4 V 78.5" stroke="#d6b46e" stroke-width=".5" opacity=".22"/><path d="M282.0 65.4 V 78.5" stroke="#d6b46e" stroke-width=".5" opacity=".22"/><rect x="32" y="46.2" width="252.0" height="17.2" fill="#d6b46e" fill-opacity="0.16" stroke="#d6b46e" stroke-width=".8" opacity="0.67"/><path d="M38.0 48.2 V 61.4" stroke="#d6b46e" stroke-width=".5" opacity=".22"/><path d="M68.0 48.2 V 61.4" stroke="#d6b46e" stroke-width=".5" opacity=".22"/><path d="M98.0 48.2 V 61.4" stroke="#d6b46e" stroke-width=".5" opacity=".22"/><path d="M128.0 48.2 V 61.4" stroke="#d6b46e" stroke-width=".5" opacity=".22"/><path d="M158.0 48.2 V 61.4" stroke="#d6b46e" stroke-width=".5" opacity=".22"/><path d="M188.0 48.2 V 61.4" stroke="#d6b46e" stroke-width=".5" opacity=".22"/><path d="M218.0 48.2 V 61.4" stroke="#d6b46e" stroke-width=".5" opacity=".22"/><path d="M248.0 48.2 V 61.4" stroke="#d6b46e" stroke-width=".5" opacity=".22"/><path d="M278.0 48.2 V 61.4" stroke="#d6b46e" stroke-width=".5" opacity=".22"/><rect x="40" y="29.0" width="240.0" height="17.2" fill="#d6b46e" fill-opacity="0.18" stroke="#d6b46e" stroke-width=".8" opacity="0.75"/><path d="M46.0 31.0 V 44.2" stroke="#d6b46e" stroke-width=".5" opacity=".22"/><path d="M74.5 31.0 V 44.2" stroke="#d6b46e" stroke-width=".5" opacity=".22"/><path d="M103.0 31.0 V 44.2" stroke="#d6b46e" stroke-width=".5" opacity=".22"/><path d="M131.5 31.0 V 44.2" stroke="#d6b46e" stroke-width=".5" opacity=".22"/><path d="M160.0 31.0 V 44.2" stroke="#d6b46e" stroke-width=".5" opacity=".22"/><path d="M188.5 31.0 V 44.2" stroke="#d6b46e" stroke-width=".5" opacity=".22"/><path d="M217.0 31.0 V 44.2" stroke="#d6b46e" stroke-width=".5" opacity=".22"/><path d="M245.5 31.0 V 44.2" stroke="#d6b46e" stroke-width=".5" opacity=".22"/><path d="M274.0 31.0 V 44.2" stroke="#d6b46e" stroke-width=".5" opacity=".22"/><path d="M178.0 31.7 H 230.0" stroke="#d6b46e" stroke-width="2" opacity=".8"/><path d="M182.0 31.7 q -2.2 -15.0 1.5 -25.1" stroke="#d6b46e" stroke-width="1.2" fill="none" opacity="0.81"/><path d="M189.5 31.7 q 0.4 -29.2 -1.3 -48.7" stroke="#d6b46e" stroke-width="1.2" fill="none" opacity="0.44"/><path d="M197.0 31.7 q 0.8 -20.1 -1.4 -33.5" stroke="#d6b46e" stroke-width="1.2" fill="none" opacity="0.69"/><path d="M204.5 31.7 q -2.7 -13.9 -3.2 -23.1" stroke="#d6b46e" stroke-width="1.2" fill="none" opacity="0.52"/><path d="M212.0 31.7 q 0.8 -28.2 -2.5 -47.0" stroke="#d6b46e" stroke-width="1.2" fill="none" opacity="0.61"/><path d="M219.5 31.7 q -0.2 -31.3 1.8 -52.2" stroke="#d6b46e" stroke-width="1.2" fill="none" opacity="0.85"/><path d="M227.0 31.7 q 1.7 -30.4 0.6 -50.7" stroke="#d6b46e" stroke-width="1.2" fill="none" opacity="0.84"/><circle cx="174.3" cy="4.4" r="1.44" fill="#d6b46e" opacity="0.48"/><circle cx="175.8" cy="12.7" r="1.29" fill="#d6b46e" opacity="0.37"/><circle cx="173.8" cy="27.3" r="0.79" fill="#d6b46e" opacity="0.54"/><circle cx="225.3" cy="17.7" r="1.66" fill="#d6b46e" opacity="0.26"/><circle cx="234.8" cy="14.1" r="1.80" fill="#d6b46e" opacity="0.62"/><circle cx="226.8" cy="24.9" r="0.87" fill="#d6b46e" opacity="0.21"/><circle cx="176.7" cy="3.4" r="0.95" fill="#d6b46e" opacity="0.58"/><circle cx="192.4" cy="16.3" r="1.44" fill="#d6b46e" opacity="0.43"/><circle cx="177.2" cy="26.3" r="1.15" fill="#d6b46e" opacity="0.45"/><circle cx="221.8" cy="24.0" r="1.74" fill="#d6b46e" opacity="0.26"/><circle cx="191.9" cy="3.6" r="0.47" fill="#d6b46e" opacity="0.51"/><circle cx="212.6" cy="25.7" r="1.85" fill="#d6b46e" opacity="0.34"/><circle cx="201.4" cy="3.9" r="0.84" fill="#d6b46e" opacity="0.48"/><circle cx="187.9" cy="12.7" r="0.86" fill="#d6b46e" opacity="0.46"/><circle cx="234.5" cy="9.8" r="0.69" fill="#d6b46e" opacity="0.63"/><circle cx="191.6" cy="7.8" r="0.58" fill="#d6b46e" opacity="0.34"/><circle cx="169.1" cy="14.5" r="1.56" fill="#d6b46e" opacity="0.55"/><circle cx="169.2" cy="2.8" r="0.84" fill="#d6b46e" opacity="0.44"/><circle cx="219.5" cy="4.7" r="1.74" fill="#d6b46e" opacity="0.33"/><circle cx="186.3" cy="4.0" r="1.16" fill="#d6b46e" opacity="0.42"/><circle cx="220.6" cy="22.5" r="0.79" fill="#d6b46e" opacity="0.37"/><circle cx="213.9" cy="29.1" r="1.40" fill="#d6b46e" opacity="0.48"/><circle cx="229.2" cy="17.2" r="1.57" fill="#d6b46e" opacity="0.65"/><circle cx="180.6" cy="22.1" r="1.46" fill="#d6b46e" opacity="0.31"/><circle cx="201.9" cy="29.7" r="0.77" fill="#d6b46e" opacity="0.57"/><circle cx="221.4" cy="4.8" r="1.31" fill="#d6b46e" opacity="0.58"/></svg>