<svg width="1200" height="528" viewBox="0 0 300 132" preserveAspectRatio="xMidYMid meet" xmlns="http://www.w3.org/2000/svg"><rect width="300" height="132" fill="#08090a"/><rect y="97.7" width="300" height="34.3" fill="#d6b46e" opacity=".07"/><path d="M0 97.7 H 300" stroke="#d6b46e" stroke-width=".8" opacity=".4"/><path d="M13.2 97.7 L 19.0 76.8 L 48.5 76.8 L 54.3 97.7 Z" fill="#d6b46e" fill-opacity=".16" stroke="#d6b46e" stroke-width="1" opacity=".85"/><ellipse cx="33.7" cy="76.8" rx="14.8" ry="5.3" fill="#d6b46e" fill-opacity=".2" stroke="#d6b46e" stroke-width=".9" opacity=".9"/><ellipse cx="33.7" cy="76.8" rx="3.7" ry="1.3" fill="none" stroke="#d6b46e" stroke-width=".5" opacity=".45"/><ellipse cx="33.7" cy="76.8" rx="7.4" ry="2.7" fill="none" stroke="#d6b46e" stroke-width=".5" opacity=".45"/><ellipse cx="33.7" cy="76.8" rx="11.1" ry="4.0" fill="none" stroke="#d6b46e" stroke-width=".5" opacity=".45"/><path d="M16.3 96.7 q -10.0 5 -23.8 6.4" stroke="#d6b46e" stroke-width=".9" fill="none" opacity=".55"/><path d="M51.2 96.7 q 10.0 5 24.9 8.6" stroke="#d6b46e" stroke-width=".9" fill="none" opacity=".55"/><path d="M16.3 96.7 q -10.0 5 -24.9 4.1" stroke="#d6b46e" stroke-width=".9" fill="none" opacity=".55"/><path d="M51.2 96.7 q 10.0 5 23.0 8.2" stroke="#d6b46e" stroke-width=".9" fill="none" opacity=".55"/><path d="M16.3 96.7 q -10.0 5 -22.0 9.6" stroke="#d6b46e" stroke-width=".9" fill="none" opacity=".55"/><path d="M70.9 97.7 L 75.8 69.6 L 100.8 69.6 L 105.7 97.7 Z" fill="#d6b46e" fill-opacity=".16" stroke="#d6b46e" stroke-width="1" opacity=".85"/><ellipse cx="88.3" cy="69.6" rx="12.5" ry="4.5" fill="#d6b46e" fill-opacity=".2" stroke="#d6b46e" stroke-width=".9" opacity=".9"/><ellipse cx="88.3" cy="69.6" rx="3.1" ry="1.1" fill="none" stroke="#d6b46e" stroke-width=".5" opacity=".45"/><ellipse cx="88.3" cy="69.6" rx="6.3" ry="2.3" fill="none" stroke="#d6b46e" stroke-width=".5" opacity=".45"/><ellipse cx="88.3" cy="69.6" rx="9.4" ry="3.4" fill="none" stroke="#d6b46e" stroke-width=".5" opacity=".45"/><path d="M73.5 96.7 q -10.0 5 -21.0 9.0" stroke="#d6b46e" stroke-width=".9" fill="none" opacity=".55"/><path d="M103.1 96.7 q 10.0 5 20.8 8.7" stroke="#d6b46e" stroke-width=".9" fill="none" opacity=".55"/><path d="M73.5 96.7 q -10.0 5 -24.6 10.8" stroke="#d6b46e" stroke-width=".9" fill="none" opacity=".55"/><path d="M103.1 96.7 q 10.0 5 17.3 6.4" stroke="#d6b46e" stroke-width=".9" fill="none" opacity=".55"/><path d="M73.5 96.7 q -10.0 5 -23.9 9.1" stroke="#d6b46e" stroke-width=".9" fill="none" opacity=".55"/><path d="M137.4 97.7 L 142.3 77.3 L 167.4 77.3 L 172.3 97.7 Z" fill="#d6b46e" fill-opacity=".16" stroke="#d6b46e" stroke-width="1" opacity=".85"/><ellipse cx="154.9" cy="77.3" rx="12.6" ry="4.5" fill="#d6b46e" fill-opacity=".2" stroke="#d6b46e" stroke-width=".9" opacity=".9"/><ellipse cx="154.9" cy="77.3" rx="3.1" ry="1.1" fill="none" stroke="#d6b46e" stroke-width=".5" opacity=".45"/><ellipse cx="154.9" cy="77.3" rx="6.3" ry="2.3" fill="none" stroke="#d6b46e" stroke-width=".5" opacity=".45"/><ellipse cx="154.9" cy="77.3" rx="9.4" ry="3.4" fill="none" stroke="#d6b46e" stroke-width=".5" opacity=".45"/><path d="M140.0 96.7 q -10.0 5 -17.4 4.5" stroke="#d6b46e" stroke-width=".9" fill="none" opacity=".55"/><path d="M169.7 96.7 q 10.0 5 15.3 5.4" stroke="#d6b46e" stroke-width=".9" fill="none" opacity=".55"/><path d="M140.0 96.7 q -10.0 5 -17.2 4.3" stroke="#d6b46e" stroke-width=".9" fill="none" opacity=".55"/><path d="M169.7 96.7 q 10.0 5 22.4 7.4" stroke="#d6b46e" stroke-width=".9" fill="none" opacity=".55"/><path d="M140.0 96.7 q -10.0 5 -21.8 7.4" stroke="#d6b46e" stroke-width=".9" fill="none" opacity=".55"/><path d="M184.3 97.7 L 190.0 73.6 L 219.3 73.6 L 225.0 97.7 Z" fill="#d6b46e" fill-opacity=".16" stroke="#d6b46e" stroke-width="1" opacity=".85"/><ellipse cx="204.6" cy="73.6" rx="14.6" ry="5.3" fill="#d6b46e" fill-opacity=".2" stroke="#d6b46e" stroke-width=".9" opacity=".9"/><ellipse cx="204.6" cy="73.6" rx="3.7" ry="1.3" fill="none" stroke="#d6b46e" stroke-width=".5" opacity=".45"/><ellipse cx="204.6" cy="73.6" rx="7.3" ry="2.6" fill="none" stroke="#d6b46e" stroke-width=".5" opacity=".45"/><ellipse cx="204.6" cy="73.6" rx="11.0" ry="4.0" fill="none" stroke="#d6b46e" stroke-width=".5" opacity=".45"/><path d="M187.4 96.7 q -10.0 5 -16.0 9.7" stroke="#d6b46e" stroke-width=".9" fill="none" opacity=".55"/><path d="M221.9 96.7 q 10.0 5 15.4 9.1" stroke="#d6b46e" stroke-width=".9" fill="none" opacity=".55"/><path d="M187.4 96.7 q -10.0 5 -23.5 7.3" stroke="#d6b46e" stroke-width=".9" fill="none" opacity=".55"/><path d="M221.9 96.7 q 10.0 5 23.7 8.5" stroke="#d6b46e" stroke-width=".9" fill="none" opacity=".55"/><path d="M187.4 96.7 q -10.0 5 -23.4 6.6" stroke="#d6b46e" stroke-width=".9" fill="none" opacity=".55"/><path d="M247.7 97.7 L 253.4 80.7 L 282.7 80.7 L 288.4 97.7 Z" fill="#d6b46e" fill-opacity=".16" stroke="#d6b46e" stroke-width="1" opacity=".85"/><ellipse cx="268.0" cy="80.7" rx="14.7" ry="5.3" fill="#d6b46e" fill-opacity=".2" stroke="#d6b46e" stroke-width=".9" opacity=".9"/><ellipse cx="268.0" cy="80.7" rx="3.7" ry="1.3" fill="none" stroke="#d6b46e" stroke-width=".5" opacity=".45"/><ellipse cx="268.0" cy="80.7" rx="7.3" ry="2.6" fill="none" stroke="#d6b46e" stroke-width=".5" opacity=".45"/><ellipse cx="268.0" cy="80.7" rx="11.0" ry="4.0" fill="none" stroke="#d6b46e" stroke-width=".5" opacity=".45"/><path d="M250.7 96.7 q -10.0 5 -22.3 5.9" stroke="#d6b46e" stroke-width=".9" fill="none" opacity=".55"/><path d="M285.3 96.7 q 10.0 5 17.7 5.0" stroke="#d6b46e" stroke-width=".9" fill="none" opacity=".55"/><path d="M250.7 96.7 q -10.0 5 -18.6 7.1" stroke="#d6b46e" stroke-width=".9" fill="none" opacity=".55"/><path d="M285.3 96.7 q 10.0 5 24.0 4.9" stroke="#d6b46e" stroke-width=".9" fill="none" opacity=".55"/><path d="M250.7 96.7 q -10.0 5 -21.9 10.0" stroke="#d6b46e" stroke-width=".9" fill="none" opacity=".55"/></svg>