<svg width="1200" height="528" viewBox="0 0 300 132" preserveAspectRatio="xMidYMid meet" xmlns="http://www.w3.org/2000/svg"><rect width="300" height="132" fill="#08090a"/><circle cx="140.3" cy="19.4" r="1.15" fill="#ece8dd" opacity="0.28"/><circle cx="240.7" cy="52.9" r="0.66" fill="#ece8dd" opacity="0.45"/><circle cx="138.7" cy="117.3" r="0.79" fill="#ece8dd" opacity="0.49"/><circle cx="118.9" cy="12.9" r="0.42" fill="#ece8dd" opacity="0.32"/><circle cx="158.1" cy="90.0" r="1.11" fill="#ece8dd" opacity="0.36"/><circle cx="170.9" cy="95.6" r="0.88" fill="#ece8dd" opacity="0.17"/><circle cx="178.9" cy="20.4" r="1.12" fill="#ece8dd" opacity="0.28"/><circle cx="32.7" cy="37.9" r="0.87" fill="#ece8dd" opacity="0.18"/><circle cx="190.5" cy="88.1" r="0.70" fill="#ece8dd" opacity="0.55"/><circle cx="34.2" cy="91.9" r="0.73" fill="#ece8dd" opacity="0.23"/><circle cx="177.5" cy="96.0" r="1.02" fill="#ece8dd" opacity="0.56"/><circle cx="294.6" cy="77.1" r="0.25" fill="#ece8dd" opacity="0.41"/><circle cx="275.5" cy="94.9" r="0.39" fill="#ece8dd" opacity="0.33"/><circle cx="287.3" cy="58.2" r="1.10" fill="#ece8dd" opacity="0.34"/><circle cx="194.9" cy="124.5" r="1.08" fill="#ece8dd" opacity="0.50"/><circle cx="73.3" cy="8.0" r="0.40" fill="#ece8dd" opacity="0.54"/><circle cx="13.5" cy="128.5" r="0.86" fill="#ece8dd" opacity="0.16"/><circle cx="203.4" cy="40.1" r="0.52" fill="#ece8dd" opacity="0.59"/><circle cx="238.2" cy="41.9" r="0.77" fill="#ece8dd" opacity="0.18"/><circle cx="288.9" cy="22.1" r="0.86" fill="#ece8dd" opacity="0.22"/><circle cx="235.3" cy="52.9" r="0.40" fill="#ece8dd" opacity="0.37"/><circle cx="141.4" cy="22.4" r="0.65" fill="#ece8dd" opacity="0.38"/><circle cx="129.5" cy="112.7" r="0.35" fill="#ece8dd" opacity="0.56"/><circle cx="181.2" cy="6.3" r="0.71" fill="#ece8dd" opacity="0.58"/><circle cx="171.5" cy="15.4" r="0.35" fill="#ece8dd" opacity="0.12"/><circle cx="214.3" cy="101.5" r="0.93" fill="#ece8dd" opacity="0.31"/><circle cx="274.9" cy="47.1" r="0.92" fill="#ece8dd" opacity="0.34"/><circle cx="178.6" cy="112.2" r="0.43" fill="#ece8dd" opacity="0.18"/><circle cx="20.9" cy="91.6" r="0.67" fill="#ece8dd" opacity="0.25"/><circle cx="158.0" cy="131.4" r="0.46" fill="#ece8dd" opacity="0.11"/><circle cx="32.9" cy="98.5" r="0.84" fill="#ece8dd" opacity="0.34"/><circle cx="266.6" cy="5.3" r="1.09" fill="#ece8dd" opacity="0.38"/><circle cx="219.1" cy="63.0" r="0.87" fill="#ece8dd" opacity="0.20"/><circle cx="100.1" cy="28.3" r="0.68" fill="#ece8dd" opacity="0.53"/><circle cx="283.7" cy="48.6" r="0.35" fill="#ece8dd" opacity="0.49"/><circle cx="157.1" cy="94.1" r="0.75" fill="#ece8dd" opacity="0.28"/><circle cx="107.7" cy="117.8" r="0.99" fill="#ece8dd" opacity="0.45"/><circle cx="128.7" cy="76.6" r="1.02" fill="#ece8dd" opacity="0.24"/><circle cx="297.5" cy="40.7" r="0.64" fill="#ece8dd" opacity="0.17"/><circle cx="56.7" cy="119.8" r="0.86" fill="#ece8dd" opacity="0.11"/><circle cx="202.8" cy="100.6" r="0.74" fill="#ece8dd" opacity="0.38"/><circle cx="161.1" cy="45.3" r="0.70" fill="#ece8dd" opacity="0.24"/><circle cx="3.2" cy="93.0" r="0.41" fill="#ece8dd" opacity="0.11"/><circle cx="235.5" cy="120.8" r="0.90" fill="#ece8dd" opacity="0.13"/><circle cx="263.6" cy="81.5" r="0.48" fill="#ece8dd" opacity="0.20"/><circle cx="112.4" cy="21.8" r="0.60" fill="#ece8dd" opacity="0.29"/><circle cx="157.7" cy="7.5" r="0.34" fill="#ece8dd" opacity="0.34"/><circle cx="296.1" cy="78.8" r="0.25" fill="#ece8dd" opacity="0.55"/><circle cx="61.4" cy="1.0" r="0.33" fill="#ece8dd" opacity="0.37"/><circle cx="64.7" cy="57.3" r="0.62" fill="#ece8dd" opacity="0.27"/><circle cx="113.9" cy="72.0" r="0.47" fill="#ece8dd" opacity="0.59"/><circle cx="241.8" cy="91.5" r="0.92" fill="#ece8dd" opacity="0.44"/><circle cx="148.3" cy="108.0" r="0.28" fill="#ece8dd" opacity="0.46"/><circle cx="135.3" cy="75.3" r="0.63" fill="#ece8dd" opacity="0.15"/><circle cx="90.2" cy="44.4" r="0.30" fill="#ece8dd" opacity="0.16"/><circle cx="46.3" cy="17.9" r="0.43" fill="#ece8dd" opacity="0.60"/><circle cx="225.9" cy="76.2" r="1.12" fill="#ece8dd" opacity="0.10"/><circle cx="45.8" cy="45.6" r="0.53" fill="#ece8dd" opacity="0.33"/><circle cx="138.7" cy="118.8" r="0.57" fill="#ece8dd" opacity="0.35"/><circle cx="121.3" cy="47.8" r="0.84" fill="#ece8dd" opacity="0.51"/><circle cx="214.0" cy="102.1" r="0.90" fill="#ece8dd" opacity="0.39"/><circle cx="190.7" cy="25.2" r="0.29" fill="#ece8dd" opacity="0.58"/><circle cx="14.0" cy="42.1" r="0.69" fill="#ece8dd" opacity="0.37"/><circle cx="286.2" cy="82.8" r="0.74" fill="#ece8dd" opacity="0.23"/><circle cx="119.5" cy="21.6" r="0.37" fill="#ece8dd" opacity="0.25"/><circle cx="6.2" cy="67.8" r="0.96" fill="#ece8dd" opacity="0.44"/><circle cx="242.4" cy="79.8" r="0.54" fill="#ece8dd" opacity="0.26"/><circle cx="236.3" cy="41.6" r="0.68" fill="#ece8dd" opacity="0.27"/><circle cx="205.0" cy="11.7" r="0.37" fill="#ece8dd" opacity="0.39"/><circle cx="239.0" cy="0.5" r="1.04" fill="#ece8dd" opacity="0.15"/><defs><radialGradient id="gp23606"><stop offset="0" stop-color="#fff" stop-opacity="1"/><stop offset=".22" stop-color="#d6b46e" stop-opacity=".9"/><stop offset="1" stop-color="#d6b46e" stop-opacity="0"/></radialGradient></defs><circle cx="150" cy="66" r="39.6" fill="url(#gp23606)"/><path d="M101.6 66 H 198.4 M 150 37.4 V 94.6" stroke="#fff" stroke-width=".9" opacity=".55"/><circle cx="150.0" cy="66.0" r="3.74" fill="#fff" opacity="1.00"/></svg>